<svg width="38" height="611" viewBox="0 0 38 611" fill="none" xmlns="http://www.w3.org/2000/svg">
<path d="M21.5 3C21.5 1.61929 20.3807 0.5 19 0.5C17.6193 0.5 16.5 1.61929 16.5 3L21.5 3ZM17.2323 609.768C18.2086 610.744 19.7915 610.744 20.7678 609.768L36.6777 593.858C37.654 592.882 37.654 591.299 36.6777 590.322C35.7014 589.346 34.1185 589.346 33.1422 590.322L19 604.464L4.85789 590.322C3.88158 589.346 2.29867 589.346 1.32236 590.322C0.346045 591.299 0.346046 592.882 1.32236 593.858L17.2323 609.768ZM16.5 3L16.5 608L21.5 608L21.5 3L16.5 3Z" fill="white"/>
</svg>
