<svg width="95" height="96" viewBox="0 0 95 96" fill="none" xmlns="http://www.w3.org/2000/svg">
<path d="M54.8446 2.25404L62.1675 31.1281C62.4507 32.2447 63.2652 33.1504 64.3456 33.5502L92.2828 43.8869C92.6715 44.0307 92.7265 44.5577 92.376 44.7788L67.178 60.6658C66.2036 61.2802 65.5938 62.3347 65.5475 63.4858L64.3498 93.2498C64.3331 93.6639 63.8489 93.8792 63.5304 93.6141L40.6343 74.5588C39.7488 73.8219 38.5575 73.5678 37.4485 73.8795L8.77107 81.938C8.3721 82.0501 8.01777 81.6561 8.17146 81.2712L19.2188 53.6073C19.6461 52.5375 19.5195 51.326 18.8804 50.3676L2.3545 25.5839C2.12459 25.2391 2.38985 24.7804 2.80337 24.8076L32.5271 26.7657C33.6766 26.8414 34.7897 26.3467 35.5037 25.4427L53.9676 2.06703C54.2245 1.74183 54.7427 1.85233 54.8446 2.25404Z" stroke="white" stroke-width="3"/>
</svg>
