<svg width="621" height="625" viewBox="0 0 621 625" fill="none" xmlns="http://www.w3.org/2000/svg">
<path d="M121.079 46.1774C121.423 45.3635 122.577 45.3635 122.921 46.1774L129.698 62.2007C129.844 62.5445 130.169 62.7787 130.541 62.8081L148.102 64.1925C148.993 64.2627 149.351 65.3781 148.668 65.9542L135.313 77.2033C135.023 77.4477 134.896 77.8352 134.985 78.2039L139.07 95.0414C139.279 95.9041 138.344 96.5915 137.583 96.1344L122.515 87.0842C122.198 86.8939 121.802 86.8939 121.485 87.0842L106.417 96.1344C105.656 96.5915 104.721 95.9041 104.93 95.0414L109.015 78.2039C109.104 77.8352 108.977 77.4477 108.687 77.2033L95.3324 65.9542C94.6485 65.3781 95.0067 64.2627 95.8981 64.1925L113.459 62.8081C113.831 62.7787 114.156 62.5445 114.302 62.2007L121.079 46.1774Z" fill="white"/>
<path d="M150.081 75.1349C150.428 74.3286 151.572 74.3286 151.919 75.1349L158.696 90.8872C158.843 91.2286 159.167 91.4603 159.538 91.489L177.068 92.8475C177.964 92.917 178.32 94.0415 177.628 94.6148L164.323 105.632C164.027 105.877 163.898 106.269 163.99 106.642L168.063 123.151C168.276 124.011 167.347 124.702 166.584 124.251L151.508 115.35C151.195 115.165 150.805 115.165 150.492 115.35L135.416 124.251C134.653 124.702 133.724 124.011 133.937 123.151L138.01 106.642C138.102 106.269 137.973 105.877 137.677 105.632L124.372 94.6148C123.68 94.0415 124.036 92.917 124.932 92.8475L142.462 91.489C142.833 91.4603 143.157 91.2286 143.304 90.8872L150.081 75.1349Z" fill="white"/>
<path d="M193.077 82.2199C193.418 81.3986 194.582 81.3986 194.923 82.2199L201.436 97.8784C201.58 98.2246 201.906 98.4612 202.279 98.4911L219.184 99.8464C220.071 99.9175 220.43 101.024 219.755 101.603L206.875 112.635C206.59 112.879 206.466 113.262 206.553 113.627L210.488 130.123C210.694 130.988 209.753 131.672 208.994 131.208L194.521 122.368C194.201 122.173 193.799 122.173 193.479 122.368L179.006 131.208C178.247 131.672 177.306 130.988 177.512 130.123L181.447 113.627C181.534 113.262 181.41 112.879 181.125 112.635L168.245 101.603C167.57 101.024 167.929 99.9175 168.816 99.8464L185.721 98.4911C186.094 98.4612 186.42 98.2246 186.564 97.8784L193.077 82.2199Z" fill="white"/>
<path d="M229.572 100.306C229.908 99.4705 231.092 99.4705 231.428 100.306L238.073 116.824C238.214 117.175 238.541 117.416 238.918 117.447L256.224 118.882C257.101 118.954 257.463 120.043 256.804 120.627L243.57 132.347C243.296 132.59 243.177 132.964 243.259 133.321L247.293 150.807C247.494 151.677 246.54 152.354 245.785 151.878L231.034 142.562C230.708 142.356 230.292 142.356 229.966 142.562L215.215 151.878C214.46 152.354 213.506 151.677 213.707 150.807L217.741 133.321C217.823 132.964 217.704 132.59 217.43 132.347L204.196 120.627C203.537 120.043 203.899 118.954 204.776 118.882L222.082 117.447C222.459 117.416 222.786 117.175 222.927 116.824L229.572 100.306Z" fill="white"/>
<path d="M252.074 215.262C252.413 214.434 253.587 214.434 253.926 215.262L260.703 231.828C260.845 232.177 261.172 232.416 261.547 232.446L279.167 233.882C280.049 233.954 280.41 235.052 279.743 235.633L266.294 247.345C266.014 247.589 265.892 247.967 265.977 248.328L270.082 265.822C270.285 266.69 269.338 267.37 268.58 266.9L253.528 257.553C253.204 257.352 252.796 257.352 252.472 257.553L237.42 266.9C236.662 267.37 235.715 266.69 235.918 265.822L240.023 248.328C240.108 247.967 239.986 247.589 239.706 247.345L226.257 235.633C225.59 235.052 225.951 233.954 226.833 233.882L244.453 232.446C244.828 232.416 245.155 232.177 245.297 231.828L252.074 215.262Z" fill="white"/>
<path d="M288.574 245.263C288.913 244.434 290.087 244.434 290.426 245.263L297.07 261.51C297.213 261.859 297.539 262.098 297.915 262.128L315.192 263.537C316.074 263.609 316.435 264.706 315.768 265.287L302.58 276.776C302.3 277.019 302.178 277.397 302.263 277.758L306.288 294.917C306.491 295.785 305.544 296.465 304.786 295.995L290.028 286.828C289.705 286.627 289.295 286.627 288.972 286.828L274.214 295.995C273.456 296.465 272.509 295.785 272.712 294.917L276.737 277.758C276.822 277.397 276.7 277.019 276.42 276.776L263.232 265.287C262.565 264.706 262.926 263.609 263.808 263.537L281.085 262.128C281.461 262.098 281.787 261.859 281.93 261.51L288.574 245.263Z" fill="white"/>
<path d="M295.579 180.177C295.923 179.363 297.077 179.363 297.421 180.177L304.066 195.883C304.212 196.227 304.536 196.461 304.909 196.49L322.126 197.847C323.017 197.917 323.375 199.033 322.691 199.609L309.599 210.634C309.309 210.878 309.182 211.266 309.271 211.634L313.276 228.137C313.485 229 312.55 229.687 311.789 229.23L297.015 220.359C296.698 220.169 296.302 220.169 295.985 220.359L281.211 229.23C280.45 229.687 279.515 229 279.724 228.137L283.729 211.634C283.818 211.266 283.691 210.878 283.401 210.634L270.309 199.609C269.625 199.033 269.983 197.917 270.874 197.847L288.091 196.49C288.464 196.461 288.788 196.227 288.934 195.883L295.579 180.177Z" fill="white"/>
<path d="M341.579 180.177C341.923 179.363 343.077 179.363 343.421 180.177L350.066 195.883C350.212 196.227 350.536 196.461 350.909 196.49L368.126 197.847C369.017 197.917 369.375 199.033 368.691 199.609L355.599 210.634C355.309 210.878 355.182 211.266 355.271 211.634L359.276 228.137C359.485 229 358.55 229.687 357.789 229.23L343.015 220.359C342.698 220.169 342.302 220.169 341.985 220.359L327.211 229.23C326.45 229.687 325.515 229 325.724 228.137L329.729 211.634C329.818 211.266 329.691 210.878 329.401 210.634L316.309 199.609C315.625 199.033 315.983 197.917 316.874 197.847L334.091 196.49C334.464 196.461 334.788 196.227 334.934 195.883L341.579 180.177Z" fill="white"/>
<path d="M410.577 121.22C410.918 120.399 412.082 120.399 412.423 121.22L419.068 137.196C419.212 137.543 419.538 137.779 419.912 137.809L437.16 139.192C438.046 139.263 438.406 140.369 437.73 140.948L424.589 152.205C424.304 152.449 424.18 152.832 424.267 153.196L428.282 170.027C428.488 170.893 427.547 171.576 426.788 171.113L412.021 162.093C411.701 161.898 411.299 161.898 410.979 162.093L396.212 171.113C395.453 171.576 394.512 170.893 394.718 170.027L398.733 153.196C398.82 152.832 398.696 152.449 398.411 152.205L385.27 140.948C384.594 140.369 384.954 139.263 385.84 139.192L403.088 137.809C403.462 137.779 403.788 137.543 403.932 137.196L410.577 121.22Z" fill="white"/>
<path d="M482.574 2.26308C482.913 1.43448 484.087 1.43448 484.426 2.26308L491.07 18.51C491.213 18.8586 491.539 19.0976 491.915 19.1282L509.192 20.5368C510.074 20.6087 510.435 21.7063 509.768 22.2875L496.58 33.776C496.3 34.0194 496.178 34.3975 496.263 34.7583L500.288 51.9174C500.491 52.7851 499.544 53.4655 498.786 52.9952L484.028 43.8277C483.705 43.627 483.295 43.627 482.972 43.8277L468.214 52.9952C467.456 53.4655 466.509 52.7851 466.712 51.9174L470.737 34.7583C470.822 34.3975 470.7 34.0194 470.42 33.776L457.232 22.2875C456.565 21.7063 456.926 20.6087 457.808 20.5368L475.085 19.1282C475.461 19.0976 475.787 18.8586 475.93 18.51L482.574 2.26308Z" fill="white"/>
<path d="M459.072 199.308C459.408 198.472 460.592 198.472 460.928 199.308L467.44 215.506C467.582 215.857 467.909 216.098 468.286 216.129L485.249 217.536C486.126 217.609 486.488 218.697 485.83 219.281L472.856 230.778C472.582 231.021 472.463 231.394 472.545 231.751L476.5 248.902C476.7 249.773 475.746 250.449 474.991 249.972L460.534 240.838C460.208 240.631 459.792 240.631 459.466 240.838L445.009 249.972C444.254 250.449 443.3 249.773 443.5 248.902L447.455 231.751C447.537 231.394 447.418 231.021 447.144 230.778L434.17 219.281C433.512 218.697 433.874 217.609 434.751 217.536L451.714 216.129C452.091 216.098 452.418 215.857 452.56 215.506L459.072 199.308Z" fill="white"/>
<path d="M590.577 140.22C590.918 139.399 592.082 139.399 592.423 140.22L599.068 156.196C599.212 156.543 599.538 156.779 599.912 156.809L617.16 158.192C618.046 158.263 618.406 159.369 617.73 159.948L604.589 171.205C604.304 171.449 604.18 171.832 604.267 172.196L608.282 189.027C608.488 189.893 607.547 190.576 606.788 190.113L592.021 181.093C591.701 180.898 591.299 180.898 590.979 181.093L576.212 190.113C575.453 190.576 574.512 189.893 574.718 189.027L578.733 172.196C578.82 171.832 578.696 171.449 578.411 171.205L565.27 159.948C564.594 159.369 564.954 158.263 565.84 158.192L583.088 156.809C583.462 156.779 583.788 156.543 583.932 156.196L590.577 140.22Z" fill="white"/>
<path d="M525.574 199.263C525.913 198.434 527.087 198.434 527.426 199.263L534.07 215.51C534.213 215.859 534.539 216.098 534.915 216.128L552.192 217.537C553.074 217.609 553.435 218.706 552.768 219.287L539.58 230.776C539.3 231.019 539.178 231.397 539.263 231.758L543.288 248.917C543.491 249.785 542.544 250.465 541.786 249.995L527.028 240.828C526.705 240.627 526.295 240.627 525.972 240.828L511.214 249.995C510.456 250.465 509.509 249.785 509.712 248.917L513.737 231.758C513.822 231.397 513.7 231.019 513.42 230.776L500.232 219.287C499.565 218.706 499.926 217.609 500.808 217.537L518.085 216.128C518.461 216.098 518.787 215.859 518.93 215.51L525.574 199.263Z" fill="white"/>
<path d="M469.074 299.264C469.413 298.435 470.587 298.435 470.926 299.264L477.438 315.192C477.581 315.541 477.907 315.78 478.283 315.81L495.217 317.191C496.099 317.263 496.46 318.361 495.793 318.942L482.865 330.206C482.586 330.45 482.464 330.828 482.549 331.189L486.494 348.013C486.697 348.88 485.75 349.561 484.993 349.09L470.528 340.103C470.205 339.902 469.795 339.902 469.472 340.103L455.007 349.09C454.25 349.561 453.303 348.88 453.506 348.013L457.451 331.189C457.536 330.828 457.414 330.45 457.135 330.206L444.207 318.942C443.54 318.361 443.901 317.263 444.783 317.191L461.717 315.81C462.093 315.78 462.419 315.541 462.562 315.192L469.074 299.264Z" fill="white"/>
<path d="M512.581 344.136C512.928 343.33 514.072 343.33 514.419 344.136L521.329 360.205C521.475 360.546 521.799 360.778 522.17 360.807L540.044 362.193C540.94 362.262 541.297 363.387 540.605 363.96L527.036 375.202C526.741 375.447 526.612 375.839 526.703 376.211L530.857 393.055C531.07 393.915 530.141 394.606 529.378 394.155L514.009 385.075C513.695 384.89 513.305 384.89 512.991 385.075L497.622 394.155C496.859 394.606 495.93 393.915 496.143 393.055L500.297 376.211C500.388 375.839 500.259 375.447 499.964 375.202L486.395 363.96C485.703 363.387 486.06 362.262 486.956 362.193L504.83 360.807C505.201 360.778 505.525 360.546 505.671 360.205L512.581 344.136Z" fill="white"/>
<path d="M29.079 305.177C29.4233 304.364 30.5767 304.364 30.921 305.177L37.6984 321.201C37.8438 321.545 38.1687 321.779 38.5408 321.808L56.102 323.192C56.9933 323.263 57.3515 324.378 56.6676 324.954L43.3128 336.203C43.0227 336.448 42.8958 336.835 42.9852 337.204L47.0697 354.041C47.2789 354.904 46.344 355.591 45.583 355.134L30.5149 346.084C30.198 345.894 29.802 345.894 29.4851 346.084L14.417 355.134C13.656 355.591 12.7211 354.904 12.9303 354.041L17.0148 337.204C17.1042 336.835 16.9773 336.448 16.6872 336.203L3.3324 324.954C2.64854 324.378 3.00668 323.263 3.89805 323.192L21.4592 321.808C21.8313 321.779 22.1562 321.545 22.3016 321.201L29.079 305.177Z" fill="white"/>
<path d="M88.5767 420.22C88.9183 419.399 90.0817 419.399 90.4233 420.22L97.0683 436.196C97.2123 436.543 97.5379 436.779 97.9117 436.809L115.16 438.192C116.046 438.263 116.406 439.369 115.73 439.948L102.589 451.205C102.304 451.449 102.18 451.832 102.267 452.196L106.282 469.027C106.488 469.893 105.547 470.576 104.788 470.113L90.0213 461.093C89.7012 460.898 89.2988 460.898 88.9787 461.093L74.2122 470.113C73.4531 470.576 72.5118 469.893 72.7182 469.027L76.733 452.196C76.82 451.832 76.6956 451.449 76.4109 451.205L63.2698 439.948C62.5943 439.369 62.9538 438.263 63.8404 438.192L81.0883 436.809C81.4621 436.779 81.7877 436.543 81.9317 436.196L88.5767 420.22Z" fill="white"/>
<path d="M107.577 449.22C107.918 448.399 109.082 448.399 109.423 449.22L116.068 465.196C116.212 465.543 116.538 465.779 116.912 465.809L134.16 467.192C135.046 467.263 135.406 468.369 134.73 468.948L121.589 480.205C121.304 480.449 121.18 480.832 121.267 481.196L125.282 498.027C125.488 498.893 124.547 499.576 123.788 499.113L109.021 490.093C108.701 489.898 108.299 489.898 107.979 490.093L93.2122 499.113C92.4531 499.576 91.5118 498.893 91.7182 498.027L95.733 481.196C95.82 480.832 95.6956 480.449 95.4109 480.205L82.2698 468.948C81.5943 468.369 81.9538 467.263 82.8404 467.192L100.088 465.809C100.462 465.779 100.788 465.543 100.932 465.196L107.577 449.22Z" fill="white"/>
<path d="M167.079 558.177C167.423 557.364 168.577 557.364 168.921 558.177L175.698 574.201C175.844 574.545 176.169 574.779 176.541 574.808L194.102 576.192C194.993 576.263 195.351 577.378 194.668 577.954L181.313 589.203C181.023 589.448 180.896 589.835 180.985 590.204L185.07 607.041C185.279 607.904 184.344 608.591 183.583 608.134L168.515 599.084C168.198 598.894 167.802 598.894 167.485 599.084L152.417 608.134C151.656 608.591 150.721 607.904 150.93 607.041L155.015 590.204C155.104 589.835 154.977 589.448 154.687 589.203L141.332 577.954C140.649 577.378 141.007 576.263 141.898 576.192L159.459 574.808C159.831 574.779 160.156 574.545 160.302 574.201L167.079 558.177Z" fill="white"/>
<path d="M272.572 491.306C272.908 490.47 274.092 490.47 274.428 491.306L281.073 507.824C281.214 508.175 281.541 508.416 281.918 508.447L299.224 509.882C300.101 509.954 300.463 511.043 299.804 511.627L286.57 523.347C286.296 523.59 286.177 523.964 286.259 524.321L290.293 541.807C290.494 542.677 289.54 543.354 288.785 542.878L274.034 533.562C273.708 533.356 273.292 533.356 272.966 533.562L258.215 542.878C257.46 543.354 256.506 542.677 256.707 541.807L260.741 524.321C260.823 523.964 260.704 523.59 260.43 523.347L247.196 511.627C246.537 511.043 246.899 509.954 247.776 509.882L265.082 508.447C265.459 508.416 265.786 508.175 265.927 507.824L272.572 491.306Z" fill="white"/>
<path d="M311.574 567.263C311.913 566.434 313.087 566.434 313.426 567.263L320.07 583.51C320.213 583.859 320.539 584.098 320.915 584.128L338.192 585.537C339.074 585.609 339.435 586.706 338.768 587.287L325.58 598.776C325.3 599.019 325.178 599.397 325.263 599.758L329.288 616.917C329.491 617.785 328.544 618.465 327.786 617.995L313.028 608.828C312.705 608.627 312.295 608.627 311.972 608.828L297.214 617.995C296.456 618.465 295.509 617.785 295.712 616.917L299.737 599.758C299.822 599.397 299.7 599.019 299.42 598.776L286.232 587.287C285.565 586.706 285.926 585.609 286.808 585.537L304.085 584.128C304.461 584.098 304.787 583.859 304.93 583.51L311.574 567.263Z" fill="white"/>
<path d="M246.826 217.453L233.686 151.755" stroke="white" stroke-width="5" stroke-linecap="round"/>
<path d="M270.11 227.791L276.1 223.54" stroke="white" stroke-width="5" stroke-linecap="round"/>
<path d="M302.669 257.839L322.378 230.593" stroke="white" stroke-width="5" stroke-linecap="round"/>
<path d="M358.512 192.14L391.361 164.895" stroke="white" stroke-width="5" stroke-linecap="round"/>
<path d="M424.21 129.727L466.914 56.4931" stroke="white" stroke-width="5" stroke-linecap="round"/>
<path d="M450.489 210.884L426 175" stroke="white" stroke-width="5" stroke-linecap="round"/>
<path d="M572.031 184.604L545.752 210.883" stroke="white" stroke-width="5" stroke-linecap="round"/>
<path d="M504 228L483 228" stroke="white" stroke-width="5" stroke-linecap="round"/>
<path d="M466.914 296.291L460.344 247.018" stroke="white" stroke-width="5" stroke-linecap="round"/>
<path d="M499.763 355.419L489.908 345.564" stroke="white" stroke-width="5" stroke-linecap="round"/>
<path d="M227.116 240.448L112.145 237.163" stroke="white" stroke-width="5" stroke-linecap="round"/>
<path d="M112.145 237.163L39.8767 316" stroke="white" stroke-width="5" stroke-linecap="round"/>
<path d="M79.2959 427.687L39.8771 355.419" stroke="white" stroke-width="5" stroke-linecap="round"/>
<path d="M158.134 568.938L124 504" stroke="white" stroke-width="5" stroke-linecap="round"/>
<path d="M253.395 529.519L190.982 572.223" stroke="white" stroke-width="5" stroke-linecap="round"/>
<path d="M286.245 591.932L190.983 588.647" stroke="white" stroke-width="5" stroke-linecap="round"/>
</svg>
