<svg width="346" height="651" viewBox="0 0 346 651" fill="none" xmlns="http://www.w3.org/2000/svg">
<path d="M133.579 2.17673C133.923 1.36293 135.077 1.36293 135.421 2.17673L142.066 17.8828C142.212 18.2266 142.536 18.4607 142.909 18.4901L160.126 19.847C161.017 19.9172 161.375 21.0328 160.691 21.6088L147.599 32.6338C147.309 32.8782 147.182 33.2658 147.271 33.6345L151.276 50.1371C151.485 50.9998 150.55 51.6872 149.789 51.2302L135.015 42.3591C134.698 42.1689 134.302 42.1689 133.985 42.3591L119.211 51.2302C118.45 51.6872 117.515 50.9998 117.724 50.1371L121.729 33.6345C121.818 33.2658 121.691 32.8782 121.401 32.6338L108.309 21.6088C107.625 21.0328 107.983 19.9172 108.874 19.847L126.091 18.4901C126.464 18.4607 126.788 18.2266 126.934 17.8828L133.579 2.17673Z" fill="white"/>
<path d="M144.077 217.22C144.418 216.399 145.582 216.399 145.923 217.22L152.701 233.514C152.845 233.861 153.17 234.097 153.544 234.127L171.135 235.537C172.022 235.608 172.381 236.715 171.706 237.294L158.303 248.774C158.018 249.018 157.894 249.401 157.981 249.766L162.076 266.932C162.282 267.797 161.341 268.481 160.582 268.017L145.521 258.818C145.201 258.623 144.799 258.623 144.479 258.818L129.418 268.017C128.659 268.481 127.718 267.797 127.924 266.932L132.019 249.766C132.106 249.401 131.982 249.018 131.697 248.774L118.294 237.294C117.619 236.715 117.978 235.608 118.865 235.537L136.456 234.127C136.83 234.097 137.155 233.861 137.299 233.514L144.077 217.22Z" fill="white"/>
<path d="M133.577 316.22C133.918 315.399 135.082 315.399 135.423 316.22L142.068 332.196C142.212 332.543 142.538 332.779 142.912 332.809L160.16 334.192C161.046 334.263 161.406 335.369 160.73 335.948L147.589 347.205C147.304 347.449 147.18 347.832 147.267 348.196L151.282 365.027C151.488 365.893 150.547 366.576 149.788 366.113L135.021 357.093C134.701 356.898 134.299 356.898 133.979 357.093L119.212 366.113C118.453 366.576 117.512 365.893 117.718 365.027L121.733 348.196C121.82 347.832 121.696 347.449 121.411 347.205L108.27 335.948C107.594 335.369 107.954 334.263 108.84 334.192L126.088 332.809C126.462 332.779 126.788 332.543 126.932 332.196L133.577 316.22Z" fill="white"/>
<path d="M29.079 503.177C29.4233 502.364 30.5767 502.364 30.921 503.177L37.6984 519.201C37.8438 519.545 38.1687 519.779 38.5408 519.808L56.102 521.192C56.9933 521.263 57.3515 522.378 56.6676 522.954L43.3128 534.203C43.0227 534.448 42.8958 534.835 42.9852 535.204L47.0697 552.041C47.2789 552.904 46.344 553.591 45.583 553.134L30.5149 544.084C30.198 543.894 29.802 543.894 29.4851 544.084L14.417 553.134C13.656 553.591 12.7211 552.904 12.9303 552.041L17.0148 535.204C17.1042 534.835 16.9773 534.448 16.6872 534.203L3.3324 522.954C2.64854 522.378 3.00668 521.263 3.89805 521.192L21.4592 519.808C21.8313 519.779 22.1562 519.545 22.3016 519.201L29.079 503.177Z" fill="white"/>
<path d="M254.577 487.22C254.918 486.399 256.082 486.399 256.423 487.22L263.068 503.196C263.212 503.543 263.538 503.779 263.912 503.809L281.16 505.192C282.046 505.263 282.406 506.369 281.73 506.948L268.589 518.205C268.304 518.449 268.18 518.832 268.267 519.196L272.282 536.027C272.488 536.893 271.547 537.576 270.788 537.113L256.021 528.093C255.701 527.898 255.299 527.898 254.979 528.093L240.212 537.113C239.453 537.576 238.512 536.893 238.718 536.027L242.733 519.196C242.82 518.832 242.696 518.449 242.411 518.205L229.27 506.948C228.594 506.369 228.954 505.263 229.84 505.192L247.088 503.809C247.462 503.779 247.788 503.543 247.932 503.196L254.577 487.22Z" fill="white"/>
<path d="M314.584 595.094C314.933 594.295 316.067 594.295 316.416 595.094L323.326 610.892C323.475 611.231 323.798 611.46 324.167 611.488L342.009 612.848C342.91 612.917 343.265 614.05 342.565 614.621L329.046 625.631C328.746 625.876 328.614 626.273 328.708 626.65L332.851 643.164C333.066 644.022 332.144 644.716 331.379 644.272L316.002 635.342C315.692 635.161 315.308 635.161 314.998 635.342L299.621 644.272C298.856 644.716 297.934 644.022 298.149 643.164L302.292 626.65C302.386 626.273 302.254 625.876 301.954 625.631L288.435 614.621C287.735 614.05 288.09 612.917 288.991 612.848L306.833 611.488C307.202 611.46 307.525 611.231 307.674 610.892L314.584 595.094Z" fill="white"/>
<path d="M145 212L134.689 51.3334" stroke="white" stroke-width="5" stroke-linecap="round"/>
<path d="M140 313.989L143.285 268" stroke="white" stroke-width="5" stroke-linecap="round"/>
<path d="M39.4272 507.934L116 371" stroke="white" stroke-width="5" stroke-linecap="round"/>
<path d="M243.091 494.795L154 371" stroke="white" stroke-width="5" stroke-linecap="round"/>
<path d="M305.504 599.912L272 542" stroke="white" stroke-width="5" stroke-linecap="round"/>
</svg>
