<svg width="604" height="422" viewBox="0 0 604 422" fill="none" xmlns="http://www.w3.org/2000/svg">
<path d="M29.0767 364.22C29.4183 363.399 30.5817 363.399 30.9233 364.22L37.7005 380.514C37.8445 380.861 38.1702 381.097 38.5439 381.127L56.1351 382.537C57.0218 382.608 57.3813 383.715 56.7057 384.294L43.3031 395.774C43.0183 396.018 42.894 396.401 42.981 396.766L47.0757 413.932C47.2821 414.797 46.3408 415.481 45.5817 415.017L30.5213 405.818C30.2012 405.623 29.7988 405.623 29.4787 405.818L14.4183 415.017C13.6592 415.481 12.7179 414.797 12.9243 413.932L17.019 396.766C17.106 396.401 16.9817 396.018 16.6969 395.774L3.29426 384.294C2.61872 383.715 2.97825 382.608 3.8649 382.537L21.4561 381.127C21.8298 381.097 22.1555 380.861 22.2995 380.514L29.0767 364.22Z" fill="white"/>
<path d="M197.077 206.22C197.418 205.399 198.582 205.399 198.923 206.22L205.701 222.514C205.845 222.861 206.17 223.097 206.544 223.127L224.135 224.537C225.022 224.608 225.381 225.715 224.706 226.294L211.303 237.774C211.018 238.018 210.894 238.401 210.981 238.766L215.076 255.932C215.282 256.797 214.341 257.481 213.582 257.017L198.521 247.818C198.201 247.623 197.799 247.623 197.479 247.818L182.418 257.017C181.659 257.481 180.718 256.797 180.924 255.932L185.019 238.766C185.106 238.401 184.982 238.018 184.697 237.774L171.294 226.294C170.619 225.715 170.978 224.608 171.865 224.537L189.456 223.127C189.83 223.097 190.155 222.861 190.299 222.514L197.077 206.22Z" fill="white"/>
<path d="M204.074 334.264C204.413 333.435 205.587 333.435 205.926 334.264L212.438 350.192C212.581 350.541 212.907 350.78 213.283 350.81L230.217 352.191C231.099 352.263 231.46 353.361 230.793 353.942L217.865 365.206C217.586 365.45 217.464 365.828 217.549 366.189L221.494 383.013C221.697 383.88 220.75 384.561 219.993 384.09L205.528 375.103C205.205 374.902 204.795 374.902 204.472 375.103L190.007 384.09C189.25 384.561 188.303 383.88 188.506 383.013L192.451 366.189C192.536 365.828 192.414 365.45 192.135 365.206L179.207 353.942C178.54 353.361 178.901 352.263 179.783 352.191L196.717 350.81C197.093 350.78 197.419 350.541 197.562 350.192L204.074 334.264Z" fill="white"/>
<path d="M525.574 347.263C525.913 346.434 527.087 346.434 527.426 347.263L534.07 363.51C534.213 363.859 534.539 364.098 534.915 364.128L552.192 365.537C553.074 365.609 553.435 366.706 552.768 367.287L539.58 378.776C539.3 379.019 539.178 379.397 539.263 379.758L543.288 396.917C543.491 397.785 542.544 398.465 541.786 397.995L527.028 388.828C526.705 388.627 526.295 388.627 525.972 388.828L511.214 397.995C510.456 398.465 509.509 397.785 509.712 396.917L513.737 379.758C513.822 379.397 513.7 379.019 513.42 378.776L500.232 367.287C499.565 366.706 499.926 365.609 500.808 365.537L518.085 364.128C518.461 364.098 518.787 363.859 518.93 363.51L525.574 347.263Z" fill="white"/>
<path d="M515.579 236.177C515.923 235.363 517.077 235.363 517.421 236.177L524.066 251.883C524.212 252.227 524.536 252.461 524.909 252.49L542.126 253.847C543.017 253.917 543.375 255.033 542.691 255.609L529.599 266.634C529.309 266.878 529.182 267.266 529.271 267.634L533.276 284.137C533.485 285 532.55 285.687 531.789 285.23L517.015 276.359C516.698 276.169 516.302 276.169 515.985 276.359L501.211 285.23C500.45 285.687 499.515 285 499.724 284.137L503.729 267.634C503.818 267.266 503.691 266.878 503.401 266.634L490.309 255.609C489.625 255.033 489.983 253.917 490.874 253.847L508.091 252.49C508.464 252.461 508.788 252.227 508.934 251.883L515.579 236.177Z" fill="white"/>
<path d="M456.577 177.22C456.918 176.399 458.082 176.399 458.423 177.22L465.068 193.196C465.212 193.543 465.538 193.779 465.912 193.809L483.16 195.192C484.046 195.263 484.406 196.369 483.73 196.948L470.589 208.205C470.304 208.449 470.18 208.832 470.267 209.196L474.282 226.027C474.488 226.893 473.547 227.576 472.788 227.113L458.021 218.093C457.701 217.898 457.299 217.898 456.979 218.093L442.212 227.113C441.453 227.576 440.512 226.893 440.718 226.027L444.733 209.196C444.82 208.832 444.696 208.449 444.411 208.205L431.27 196.948C430.594 196.369 430.954 195.263 431.84 195.192L449.088 193.809C449.462 193.779 449.788 193.543 449.932 193.196L456.577 177.22Z" fill="white"/>
<path d="M450.079 91.1774C450.423 90.3635 451.577 90.3635 451.921 91.1774L458.698 107.201C458.844 107.545 459.169 107.779 459.541 107.808L477.102 109.192C477.993 109.263 478.351 110.378 477.668 110.954L464.313 122.203C464.023 122.448 463.896 122.835 463.985 123.204L468.07 140.041C468.279 140.904 467.344 141.591 466.583 141.134L451.515 132.084C451.198 131.894 450.802 131.894 450.485 132.084L435.417 141.134C434.656 141.591 433.721 140.904 433.93 140.041L438.015 123.204C438.104 122.835 437.977 122.448 437.687 122.203L424.332 110.954C423.649 110.378 424.007 109.263 424.898 109.192L442.459 107.808C442.831 107.779 443.156 107.545 443.302 107.201L450.079 91.1774Z" fill="white"/>
<path d="M538.077 2.21993C538.418 1.39864 539.582 1.39864 539.923 2.21993L546.701 18.5143C546.845 18.8605 547.17 19.0971 547.544 19.1271L565.135 20.5374C566.022 20.6084 566.381 21.7149 565.706 22.2936L552.303 33.7744C552.018 34.0183 551.894 34.4011 551.981 34.7659L556.076 51.9318C556.282 52.7971 555.341 53.4809 554.582 53.0173L539.521 43.8184C539.201 43.6229 538.799 43.6229 538.479 43.8184L523.418 53.0173C522.659 53.4809 521.718 52.7971 521.924 51.9318L526.019 34.7659C526.106 34.4011 525.982 34.0183 525.697 33.7744L512.294 22.2936C511.619 21.7149 511.978 20.6084 512.865 20.5374L530.456 19.1271C530.83 19.0971 531.155 18.8605 531.299 18.5143L538.077 2.21993Z" fill="white"/>
<path d="M574.072 51.3077C574.408 50.4717 575.592 50.4717 575.928 51.3077L582.44 67.5057C582.582 67.8567 582.909 68.098 583.286 68.1293L600.249 69.5361C601.126 69.6089 601.488 70.6974 600.83 71.2811L587.856 82.7776C587.582 83.0205 587.463 83.3939 587.545 83.7508L591.5 100.902C591.7 101.773 590.746 102.449 589.991 101.972L575.534 92.8375C575.208 92.6314 574.792 92.6314 574.466 92.8375L560.009 101.972C559.254 102.449 558.3 101.773 558.5 100.902L562.455 83.7508C562.537 83.3939 562.418 83.0205 562.144 82.7776L549.17 71.2811C548.512 70.6974 548.874 69.6089 549.751 69.5361L566.714 68.1293C567.091 68.098 567.418 67.8567 567.56 67.5057L574.072 51.3077Z" fill="white"/>
<path d="M174.558 256.63L46.447 374.887" stroke="white" stroke-width="5" stroke-linecap="round"/>
<path d="M181.128 365.031L59.5866 384.741" stroke="white" stroke-width="5" stroke-linecap="round"/>
<path d="M499.763 371.602L233.686 361.747" stroke="white" stroke-width="5" stroke-linecap="round"/>
<path d="M434.065 207.356L227.116 230.351" stroke="white" stroke-width="5" stroke-linecap="round"/>
<path d="M522.757 345.322L516.188 282.909" stroke="white" stroke-width="5" stroke-linecap="round"/>
<path d="M499.763 246.775L476.769 223.781" stroke="white" stroke-width="5" stroke-linecap="round"/>
<path d="M455 172L453.774 138.373" stroke="white" stroke-width="5" stroke-linecap="round"/>
<path d="M466.914 102.24L519.472 49.6811" stroke="white" stroke-width="5" stroke-linecap="round"/>
<path d="M558 56L562.176 62.8208" stroke="white" stroke-width="5" stroke-linecap="round"/>
</svg>
