<svg width="463" height="489" viewBox="0 0 463 489" fill="none" xmlns="http://www.w3.org/2000/svg">
<path d="M28.841 31.9843C29.1826 31.163 30.346 31.163 30.6876 31.9843L37.4025 48.1288C37.5465 48.475 37.8721 48.7116 38.2459 48.7416L55.6752 50.1389C56.5618 50.21 56.9214 51.3165 56.2458 51.8951L42.9665 63.2703C42.6817 63.5142 42.5574 63.897 42.6444 64.2618L46.7014 81.2698C46.9078 82.135 45.9666 82.8189 45.2075 82.3553L30.2855 73.241C29.9655 73.0455 29.563 73.0455 29.243 73.241L14.3211 82.3553C13.562 82.8189 12.6207 82.135 12.8271 81.2698L16.8842 64.2618C16.9712 63.897 16.8468 63.5142 16.562 63.2703L3.28273 51.8951C2.60719 51.3165 2.96671 50.21 3.85337 50.1389L21.2827 48.7416C21.6565 48.7116 21.9821 48.475 22.1261 48.1288L28.841 31.9843Z" fill="white"/>
<path d="M406.841 431.22C407.183 430.399 408.346 430.399 408.688 431.22L415.402 447.364C415.546 447.711 415.872 447.947 416.246 447.977L433.675 449.374C434.562 449.446 434.921 450.552 434.246 451.131L420.967 462.506C420.682 462.75 420.557 463.133 420.644 463.497L424.701 480.505C424.908 481.371 423.967 482.055 423.207 481.591L408.286 472.477C407.966 472.281 407.563 472.281 407.243 472.477L392.321 481.591C391.562 482.055 390.621 481.371 390.827 480.505L394.884 463.497C394.971 463.133 394.847 462.75 394.562 462.506L381.283 451.131C380.607 450.552 380.967 449.446 381.853 449.374L399.283 447.977C399.656 447.947 399.982 447.711 400.126 447.364L406.841 431.22Z" fill="white"/>
<path d="M432.312 389.156C432.654 388.335 433.817 388.335 434.159 389.156L440.874 405.3C441.018 405.647 441.344 405.883 441.717 405.913L459.147 407.311C460.033 407.382 460.393 408.488 459.717 409.067L446.438 420.442C446.153 420.686 446.029 421.069 446.116 421.433L450.173 438.441C450.379 439.307 449.438 439.991 448.679 439.527L433.757 430.413C433.437 430.217 433.034 430.217 432.714 430.413L417.793 439.527C417.033 439.991 416.092 439.307 416.299 438.441L420.356 421.433C420.443 421.069 420.318 420.686 420.033 420.442L406.754 409.067C406.079 408.488 406.438 407.382 407.325 407.311L424.754 405.913C425.128 405.883 425.454 405.647 425.598 405.3L432.312 389.156Z" fill="white"/>
<path d="M422.391 276.713C422.733 275.891 423.896 275.891 424.238 276.713L430.952 292.857C431.096 293.203 431.422 293.44 431.796 293.47L449.225 294.867C450.112 294.938 450.471 296.045 449.796 296.623L436.517 307.999C436.232 308.243 436.107 308.625 436.194 308.99L440.251 325.998C440.458 326.863 439.517 327.547 438.757 327.084L423.836 317.969C423.516 317.774 423.113 317.774 422.793 317.969L407.871 327.084C407.112 327.547 406.171 326.863 406.377 325.998L410.434 308.99C410.521 308.625 410.397 308.243 410.112 307.999L396.833 296.623C396.157 296.045 396.517 294.938 397.403 294.867L414.833 293.47C415.206 293.44 415.532 293.203 415.676 292.857L422.391 276.713Z" fill="white"/>
<path d="M296.72 2.21993C297.061 1.39864 298.225 1.39864 298.566 2.21993L305.281 18.3644C305.425 18.7106 305.751 18.9472 306.124 18.9772L323.554 20.3745C324.44 20.4456 324.8 21.5521 324.124 22.1307L310.845 33.5059C310.56 33.7498 310.436 34.1326 310.523 34.4974L314.58 51.5054C314.786 52.3706 313.845 53.0545 313.086 52.5908L298.164 43.4766C297.844 43.2811 297.442 43.2811 297.122 43.4766L282.2 52.5908C281.441 53.0545 280.499 52.3706 280.706 51.5054L284.763 34.4974C284.85 34.1326 284.725 33.7498 284.441 33.5059L271.161 22.1307C270.486 21.5521 270.845 20.4456 271.732 20.3745L289.161 18.9772C289.535 18.9472 289.861 18.7106 290.005 18.3644L296.72 2.21993Z" fill="white"/>
<path d="M62 53.5388L276.906 33" stroke="white" stroke-width="5" stroke-linecap="round"/>
<path d="M310.157 58.2999L413.393 281.107" stroke="white" stroke-width="5" stroke-linecap="round"/>
<path d="M423.314 324.1L430 384" stroke="white" stroke-width="5" stroke-linecap="round"/>
</svg>
