<svg width="427" height="614" viewBox="0 0 427 614" fill="none" xmlns="http://www.w3.org/2000/svg">
<path d="M87.0767 452.22C87.4183 451.399 88.5817 451.399 88.9233 452.22L95.436 467.878C95.58 468.225 95.9057 468.461 96.2794 468.491L113.184 469.846C114.071 469.917 114.43 471.024 113.755 471.603L100.875 482.635C100.59 482.879 100.466 483.262 100.553 483.627L104.488 500.123C104.694 500.988 103.753 501.672 102.994 501.208L88.5213 492.368C88.2012 492.173 87.7988 492.173 87.4787 492.368L73.0061 501.208C72.247 501.672 71.3057 500.988 71.5121 500.123L75.447 483.627C75.534 483.262 75.4096 482.879 75.1248 482.635L62.2453 471.603C61.5698 471.024 61.9293 469.917 62.816 469.846L79.7206 468.491C80.0944 468.461 80.42 468.225 80.564 467.878L87.0767 452.22Z" fill="white"/>
<path d="M54.5723 440.306C54.9085 439.47 56.0915 439.47 56.4277 440.306L63.0726 456.824C63.2137 457.175 63.5408 457.416 63.9177 457.447L81.2235 458.882C82.1008 458.954 82.4629 460.043 81.8039 460.627L68.5703 472.347C68.296 472.59 68.1766 472.964 68.2589 473.321L72.2934 490.807C72.4942 491.677 71.5402 492.354 70.785 491.878L56.0339 482.562C55.7078 482.356 55.2922 482.356 54.9661 482.562L40.215 491.878C39.4598 492.354 38.5058 491.677 38.7066 490.807L42.7411 473.321C42.8234 472.964 42.704 472.59 42.4297 472.347L29.1961 460.627C28.5371 460.043 28.8992 458.954 29.7765 458.882L47.0823 457.447C47.4592 457.416 47.7863 457.175 47.9274 456.824L54.5723 440.306Z" fill="white"/>
<path d="M31.0814 485.135C31.4284 484.329 32.5716 484.329 32.9186 485.135L39.6963 500.887C39.8431 501.229 40.1671 501.46 40.5376 501.489L58.0676 502.848C58.9638 502.917 59.3204 504.042 58.6281 504.615L45.3227 515.632C45.0271 515.877 44.8977 516.269 44.9897 516.642L49.0633 533.151C49.2756 534.011 48.347 534.702 47.584 534.251L32.5084 525.35C32.1948 525.165 31.8052 525.165 31.4916 525.35L16.416 534.251C15.653 534.702 14.7244 534.011 14.9367 533.151L19.0103 516.642C19.1023 516.269 18.9729 515.877 18.6773 515.632L5.37189 504.615C4.67957 504.042 5.03624 502.917 5.9324 502.848L23.4624 501.489C23.8329 501.46 24.1569 501.229 24.3037 500.887L31.0814 485.135Z" fill="white"/>
<path d="M28.5767 513.22C28.9183 512.399 30.0817 512.399 30.4233 513.22L37.0683 529.196C37.2123 529.543 37.5379 529.779 37.9117 529.809L55.1596 531.192C56.0462 531.263 56.4058 532.369 55.7302 532.948L42.5891 544.205C42.3044 544.449 42.18 544.832 42.267 545.196L46.2818 562.027C46.4882 562.893 45.5469 563.576 44.7878 563.113L30.0213 554.093C29.7012 553.898 29.2988 553.898 28.9787 554.093L14.2122 563.113C13.4531 563.576 12.5118 562.893 12.7182 562.027L16.733 545.196C16.82 544.832 16.6956 544.449 16.4109 544.205L3.26979 532.948C2.59425 532.369 2.95378 531.263 3.84043 531.192L21.0883 529.809C21.4621 529.779 21.7877 529.543 21.9317 529.196L28.5767 513.22Z" fill="white"/>
<path d="M87.0701 555.351C87.4035 554.508 88.5965 554.508 88.9299 555.351L95.4426 571.82C95.5822 572.173 95.91 572.416 96.2885 572.448L113.28 573.881C114.152 573.955 114.516 575.034 113.865 575.62L100.847 587.349C100.578 587.591 100.461 587.96 100.541 588.313L104.505 605.792C104.703 606.664 103.743 607.338 102.989 606.854L88.5405 597.572C88.2112 597.361 87.7888 597.361 87.4595 597.572L73.0105 606.854C72.2574 607.338 71.2968 606.664 71.4948 605.792L75.459 588.313C75.5391 587.96 75.4221 587.591 75.1531 587.349L62.1348 575.62C61.4843 575.034 61.8476 573.955 62.7201 573.881L79.7115 572.448C80.09 572.416 80.4178 572.173 80.5574 571.82L87.0701 555.351Z" fill="white"/>
<path d="M178.577 527.22C178.918 526.399 180.082 526.399 180.423 527.22L187.068 543.196C187.212 543.543 187.538 543.779 187.912 543.809L205.16 545.192C206.046 545.263 206.406 546.369 205.73 546.948L192.589 558.205C192.304 558.449 192.18 558.832 192.267 559.196L196.282 576.027C196.488 576.893 195.547 577.576 194.788 577.113L180.021 568.093C179.701 567.898 179.299 567.898 178.979 568.093L164.212 577.113C163.453 577.576 162.512 576.893 162.718 576.027L166.733 559.196C166.82 558.832 166.696 558.449 166.411 558.205L153.27 546.948C152.594 546.369 152.954 545.263 153.84 545.192L171.088 543.809C171.462 543.779 171.788 543.543 171.932 543.196L178.577 527.22Z" fill="white"/>
<path d="M248.577 507.22C248.918 506.399 250.082 506.399 250.423 507.22L257.068 523.196C257.212 523.543 257.538 523.779 257.912 523.809L275.16 525.192C276.046 525.263 276.406 526.369 275.73 526.948L262.589 538.205C262.304 538.449 262.18 538.832 262.267 539.196L266.282 556.027C266.488 556.893 265.547 557.576 264.788 557.113L250.021 548.093C249.701 547.898 249.299 547.898 248.979 548.093L234.212 557.113C233.453 557.576 232.512 556.893 232.718 556.027L236.733 539.196C236.82 538.832 236.696 538.449 236.411 538.205L223.27 526.948C222.594 526.369 222.954 525.263 223.84 525.192L241.088 523.809C241.462 523.779 241.788 523.543 241.932 523.196L248.577 507.22Z" fill="white"/>
<path d="M241.577 474.22C241.918 473.399 243.082 473.399 243.423 474.22L250.068 490.196C250.212 490.543 250.538 490.779 250.912 490.809L268.16 492.192C269.046 492.263 269.406 493.369 268.73 493.948L255.589 505.205C255.304 505.449 255.18 505.832 255.267 506.196L259.282 523.027C259.488 523.893 258.547 524.576 257.788 524.113L243.021 515.093C242.701 514.898 242.299 514.898 241.979 515.093L227.212 524.113C226.453 524.576 225.512 523.893 225.718 523.027L229.733 506.196C229.82 505.832 229.696 505.449 229.411 505.205L216.27 493.948C215.594 493.369 215.954 492.263 216.84 492.192L234.088 490.809C234.462 490.779 234.788 490.543 234.932 490.196L241.577 474.22Z" fill="white"/>
<path d="M209.079 333.177C209.423 332.364 210.577 332.364 210.921 333.177L217.698 349.201C217.844 349.545 218.169 349.779 218.541 349.808L236.102 351.192C236.993 351.263 237.351 352.378 236.668 352.954L223.313 364.203C223.023 364.448 222.896 364.835 222.985 365.204L227.07 382.041C227.279 382.904 226.344 383.591 225.583 383.134L210.515 374.084C210.198 373.894 209.802 373.894 209.485 374.084L194.417 383.134C193.656 383.591 192.721 382.904 192.93 382.041L197.015 365.204C197.104 364.835 196.977 364.448 196.687 364.203L183.332 352.954C182.649 352.378 183.007 351.263 183.898 351.192L201.459 349.808C201.831 349.779 202.156 349.545 202.302 349.201L209.079 333.177Z" fill="white"/>
<path d="M235.077 202.22C235.418 201.399 236.582 201.399 236.923 202.22L243.436 217.878C243.58 218.225 243.906 218.461 244.279 218.491L261.184 219.846C262.071 219.917 262.43 221.024 261.755 221.603L248.875 232.635C248.59 232.879 248.466 233.262 248.553 233.627L252.488 250.123C252.694 250.988 251.753 251.672 250.994 251.208L236.521 242.368C236.201 242.173 235.799 242.173 235.479 242.368L221.006 251.208C220.247 251.672 219.306 250.988 219.512 250.123L223.447 233.627C223.534 233.262 223.41 232.879 223.125 232.635L210.245 221.603C209.57 221.024 209.929 219.917 210.816 219.846L227.721 218.491C228.094 218.461 228.42 218.225 228.564 217.878L235.077 202.22Z" fill="white"/>
<path d="M291.579 129.177C291.923 128.363 293.077 128.363 293.421 129.177L300.066 144.883C300.212 145.227 300.536 145.461 300.909 145.49L318.126 146.847C319.017 146.917 319.375 148.033 318.691 148.609L305.599 159.634C305.309 159.878 305.182 160.266 305.271 160.634L309.276 177.137C309.485 178 308.55 178.687 307.789 178.23L293.015 169.359C292.698 169.169 292.302 169.169 291.985 169.359L277.211 178.23C276.45 178.687 275.515 178 275.724 177.137L279.729 160.634C279.818 160.266 279.691 159.878 279.401 159.634L266.309 148.609C265.625 148.033 265.983 146.917 266.874 146.847L284.091 145.49C284.464 145.461 284.788 145.227 284.934 144.883L291.579 129.177Z" fill="white"/>
<path d="M330.579 2.17673C330.923 1.36293 332.077 1.36293 332.421 2.17673L339.066 17.8828C339.212 18.2266 339.536 18.4607 339.909 18.4901L357.126 19.847C358.017 19.9172 358.375 21.0328 357.691 21.6088L344.599 32.6338C344.309 32.8782 344.182 33.2658 344.271 33.6345L348.276 50.1371C348.485 50.9998 347.55 51.6872 346.789 51.2302L332.015 42.3591C331.698 42.1689 331.302 42.1689 330.985 42.3591L316.211 51.2302C315.45 51.6872 314.515 50.9998 314.724 50.1371L318.729 33.6345C318.818 33.2658 318.691 32.8782 318.401 32.6338L305.309 21.6088C304.625 21.0328 304.983 19.9172 305.874 19.847L323.091 18.4901C323.464 18.4607 323.788 18.2266 323.934 17.8828L330.579 2.17673Z" fill="white"/>
<path d="M369.579 50.1781C369.923 49.3641 371.077 49.3641 371.421 50.1781L378.331 66.5186C378.476 66.8625 378.801 67.0967 379.173 67.126L397.078 68.5379C397.969 68.6082 398.327 69.7235 397.644 70.2996L384.027 81.7729C383.737 82.0173 383.61 82.4047 383.699 82.7733L387.864 99.9456C388.073 100.808 387.138 101.496 386.377 101.039L371.015 91.8094C370.698 91.619 370.302 91.619 369.985 91.8094L354.623 101.039C353.862 101.496 352.927 100.808 353.136 99.9456L357.301 82.7733C357.39 82.4047 357.263 82.0173 356.973 81.7729L343.356 70.2996C342.673 69.7235 343.031 68.6082 343.922 68.5379L361.827 67.126C362.199 67.0967 362.524 66.8625 362.669 66.5186L369.579 50.1781Z" fill="white"/>
<path d="M396.579 127.177C396.923 126.363 398.077 126.363 398.421 127.177L405.066 142.883C405.212 143.227 405.536 143.461 405.909 143.49L423.126 144.847C424.017 144.917 424.375 146.033 423.691 146.609L410.599 157.634C410.309 157.878 410.182 158.266 410.271 158.634L414.276 175.137C414.485 176 413.55 176.687 412.789 176.23L398.015 167.359C397.698 167.169 397.302 167.169 396.985 167.359L382.211 176.23C381.45 176.687 380.515 176 380.724 175.137L384.729 158.634C384.818 158.266 384.691 157.878 384.401 157.634L371.309 146.609C370.625 146.033 370.983 144.917 371.874 144.847L389.091 143.49C389.464 143.461 389.788 143.227 389.934 142.883L396.579 127.177Z" fill="white"/>
<path d="M324.801 51.6982L298.521 130.536" stroke="white" stroke-width="5" stroke-linecap="round"/>
<path d="M349 100L305.091 140.39" stroke="white" stroke-width="5" stroke-linecap="round"/>
<path d="M371 154H318" stroke="white" stroke-width="5" stroke-linecap="round"/>
<path d="M274 181L249.248 212.658" stroke="white" stroke-width="5" stroke-linecap="round"/>
<path d="M232.823 248.792L216.399 334.199" stroke="white" stroke-width="5" stroke-linecap="round"/>
<path d="M216.399 383.473L238 472" stroke="white" stroke-width="5" stroke-linecap="round"/>
<path d="M229.538 537.864L209 544" stroke="white" stroke-width="5" stroke-linecap="round"/>
<path d="M160.863 561.776L119 575" stroke="white" stroke-width="5" stroke-linecap="round"/>
<path d="M68.5784 567.428L48.8691 552.452" stroke="white" stroke-width="5" stroke-linecap="round"/>
<path d="M42 496.473L44.3125 493" stroke="white" stroke-width="5" stroke-linecap="round"/>
</svg>
