<svg width="461" height="689" viewBox="0 0 461 689" fill="none" xmlns="http://www.w3.org/2000/svg">
<path d="M212.579 2.17673C212.923 1.36293 214.077 1.36293 214.421 2.17673L221.066 17.8828C221.212 18.2266 221.536 18.4607 221.909 18.4901L239.126 19.847C240.017 19.9172 240.375 21.0328 239.691 21.6088L226.599 32.6338C226.309 32.8782 226.182 33.2658 226.271 33.6345L230.276 50.1371C230.485 50.9998 229.55 51.6872 228.789 51.2302L214.015 42.3591C213.698 42.1689 213.302 42.1689 212.985 42.3591L198.211 51.2302C197.45 51.6872 196.515 50.9998 196.724 50.1371L200.729 33.6345C200.818 33.2658 200.691 32.8782 200.401 32.6338L187.309 21.6088C186.625 21.0328 186.983 19.9172 187.874 19.847L205.091 18.4901C205.464 18.4607 205.788 18.2266 205.934 17.8828L212.579 2.17673Z" fill="white"/>
<path d="M264.577 185.22C264.918 184.399 266.082 184.399 266.423 185.22L273.068 201.196C273.212 201.543 273.538 201.779 273.912 201.809L291.16 203.192C292.046 203.263 292.406 204.369 291.73 204.948L278.589 216.205C278.304 216.449 278.18 216.832 278.267 217.196L282.282 234.027C282.488 234.893 281.547 235.576 280.788 235.113L266.021 226.093C265.701 225.898 265.299 225.898 264.979 226.093L250.212 235.113C249.453 235.576 248.512 234.893 248.718 234.027L252.733 217.196C252.82 216.832 252.696 216.449 252.411 216.205L239.27 204.948C238.594 204.369 238.954 203.263 239.84 203.192L257.088 201.809C257.462 201.779 257.788 201.543 257.932 201.196L264.577 185.22Z" fill="white"/>
<path d="M28.0744 244.264C28.4132 243.435 29.5868 243.435 29.9256 244.264L36.4382 260.192C36.5808 260.541 36.9071 260.78 37.2826 260.81L54.2171 262.191C55.099 262.263 55.4599 263.361 54.7928 263.942L41.8654 275.206C41.5861 275.45 41.4642 275.828 41.5488 276.189L45.4939 293.013C45.6974 293.88 44.7497 294.561 43.9926 294.09L29.5278 285.103C29.2046 284.902 28.7954 284.902 28.4722 285.103L14.0074 294.09C13.2503 294.561 12.3026 293.88 12.5061 293.013L16.4512 276.189C16.5358 275.828 16.4139 275.45 16.1346 275.206L3.2072 263.942C2.54014 263.361 2.90102 262.263 3.78287 262.191L20.7174 260.81C21.0929 260.78 21.4192 260.541 21.5618 260.192L28.0744 244.264Z" fill="white"/>
<path d="M166.074 231.264C166.413 230.435 167.587 230.435 167.926 231.264L174.438 247.192C174.581 247.541 174.907 247.78 175.283 247.81L192.217 249.191C193.099 249.263 193.46 250.361 192.793 250.942L179.865 262.206C179.586 262.45 179.464 262.828 179.549 263.189L183.494 280.013C183.697 280.88 182.75 281.561 181.993 281.09L167.528 272.103C167.205 271.902 166.795 271.902 166.472 272.103L152.007 281.09C151.25 281.561 150.303 280.88 150.506 280.013L154.451 263.189C154.536 262.828 154.414 262.45 154.135 262.206L141.207 250.942C140.54 250.361 140.901 249.263 141.783 249.191L158.717 247.81C159.093 247.78 159.419 247.541 159.562 247.192L166.074 231.264Z" fill="white"/>
<path d="M337.577 290.22C337.918 289.399 339.082 289.399 339.423 290.22L346.068 306.196C346.212 306.543 346.538 306.779 346.912 306.809L364.16 308.192C365.046 308.263 365.406 309.369 364.73 309.948L351.589 321.205C351.304 321.449 351.18 321.832 351.267 322.196L355.282 339.027C355.488 339.893 354.547 340.576 353.788 340.113L339.021 331.093C338.701 330.898 338.299 330.898 337.979 331.093L323.212 340.113C322.453 340.576 321.512 339.893 321.718 339.027L325.733 322.196C325.82 321.832 325.696 321.449 325.411 321.205L312.27 309.948C311.594 309.369 311.954 308.263 312.84 308.192L330.088 306.809C330.462 306.779 330.788 306.543 330.932 306.196L337.577 290.22Z" fill="white"/>
<path d="M236.077 370.22C236.418 369.399 237.582 369.399 237.923 370.22L244.436 385.878C244.58 386.225 244.906 386.461 245.279 386.491L262.184 387.846C263.071 387.917 263.43 389.024 262.755 389.603L249.875 400.635C249.59 400.879 249.466 401.262 249.553 401.627L253.488 418.123C253.694 418.988 252.753 419.672 251.994 419.208L237.521 410.368C237.201 410.173 236.799 410.173 236.479 410.368L222.006 419.208C221.247 419.672 220.306 418.988 220.512 418.123L224.447 401.627C224.534 401.262 224.41 400.879 224.125 400.635L211.245 389.603C210.57 389.024 210.929 387.917 211.816 387.846L228.721 386.491C229.094 386.461 229.42 386.225 229.564 385.878L236.077 370.22Z" fill="white"/>
<path d="M430.081 340.135C430.428 339.329 431.572 339.329 431.919 340.135L438.696 355.887C438.843 356.229 439.167 356.46 439.538 356.489L457.068 357.848C457.964 357.917 458.32 359.042 457.628 359.615L444.323 370.632C444.027 370.877 443.898 371.269 443.99 371.642L448.063 388.151C448.276 389.011 447.347 389.702 446.584 389.251L431.508 380.35C431.195 380.165 430.805 380.165 430.492 380.35L415.416 389.251C414.653 389.702 413.724 389.011 413.937 388.151L418.01 371.642C418.102 371.269 417.973 370.877 417.677 370.632L404.372 359.615C403.68 359.042 404.036 357.917 404.932 357.848L422.462 356.489C422.833 356.46 423.157 356.229 423.304 355.887L430.081 340.135Z" fill="white"/>
<path d="M182.577 461.22C182.918 460.399 184.082 460.399 184.423 461.22L191.068 477.196C191.212 477.543 191.538 477.779 191.912 477.809L209.16 479.192C210.046 479.263 210.406 480.369 209.73 480.948L196.589 492.205C196.304 492.449 196.18 492.832 196.267 493.196L200.282 510.027C200.488 510.893 199.547 511.576 198.788 511.113L184.021 502.093C183.701 501.898 183.299 501.898 182.979 502.093L168.212 511.113C167.453 511.576 166.512 510.893 166.718 510.027L170.733 493.196C170.82 492.832 170.696 492.449 170.411 492.205L157.27 480.948C156.594 480.369 156.954 479.263 157.84 479.192L175.088 477.809C175.462 477.779 175.788 477.543 175.932 477.196L182.577 461.22Z" fill="white"/>
<path d="M166.074 612.264C166.413 611.435 167.587 611.435 167.926 612.264L174.438 628.192C174.581 628.541 174.907 628.78 175.283 628.81L192.217 630.191C193.099 630.263 193.46 631.361 192.793 631.942L179.865 643.206C179.586 643.45 179.464 643.828 179.549 644.189L183.494 661.013C183.697 661.88 182.75 662.561 181.993 662.09L167.528 653.103C167.205 652.902 166.795 652.902 166.472 653.103L152.007 662.09C151.25 662.561 150.303 661.88 150.506 661.013L154.451 644.189C154.536 643.828 154.414 643.45 154.135 643.206L141.207 631.942C140.54 631.361 140.901 630.263 141.783 630.191L158.717 628.81C159.093 628.78 159.419 628.541 159.562 628.192L166.074 612.264Z" fill="white"/>
<path d="M419.074 497.264C419.413 496.435 420.587 496.435 420.926 497.264L427.438 513.192C427.581 513.541 427.907 513.78 428.283 513.81L445.217 515.191C446.099 515.263 446.46 516.361 445.793 516.942L432.865 528.206C432.586 528.45 432.464 528.828 432.549 529.189L436.494 546.013C436.697 546.88 435.75 547.561 434.993 547.09L420.528 538.103C420.205 537.902 419.795 537.902 419.472 538.103L405.007 547.09C404.25 547.561 403.303 546.88 403.506 546.013L407.451 529.189C407.536 528.828 407.414 528.45 407.135 528.206L394.207 516.942C393.54 516.361 393.901 515.263 394.783 515.191L411.717 513.81C412.093 513.78 412.419 513.541 412.562 513.192L419.074 497.264Z" fill="white"/>
<path d="M321.074 524.264C321.413 523.435 322.587 523.435 322.926 524.264L329.438 540.192C329.581 540.541 329.907 540.78 330.283 540.81L347.217 542.191C348.099 542.263 348.46 543.361 347.793 543.942L334.865 555.206C334.586 555.45 334.464 555.828 334.549 556.189L338.494 573.013C338.697 573.88 337.75 574.561 336.993 574.09L322.528 565.103C322.205 564.902 321.795 564.902 321.472 565.103L307.007 574.09C306.25 574.561 305.303 573.88 305.506 573.013L309.451 556.189C309.536 555.828 309.414 555.45 309.135 555.206L296.207 543.942C295.54 543.361 295.901 542.263 296.783 542.191L313.717 540.81C314.093 540.78 314.419 540.541 314.562 540.192L321.074 524.264Z" fill="white"/>
<path d="M321.077 583.22C321.418 582.399 322.582 582.399 322.923 583.22L329.436 598.878C329.58 599.225 329.906 599.461 330.279 599.491L347.184 600.846C348.071 600.917 348.43 602.024 347.755 602.603L334.875 613.635C334.59 613.879 334.466 614.262 334.553 614.627L338.488 631.123C338.694 631.988 337.753 632.672 336.994 632.208L322.521 623.368C322.201 623.173 321.799 623.173 321.479 623.368L307.006 632.208C306.247 632.672 305.306 631.988 305.512 631.123L309.447 614.627C309.534 614.262 309.41 613.879 309.125 613.635L296.245 602.603C295.57 602.024 295.929 600.917 296.816 600.846L313.721 599.491C314.094 599.461 314.42 599.225 314.564 598.878L321.077 583.22Z" fill="white"/>
<path d="M287.579 633.177C287.923 632.363 289.077 632.363 289.421 633.177L296.066 648.883C296.212 649.227 296.536 649.461 296.909 649.49L314.126 650.847C315.017 650.917 315.375 652.033 314.691 652.609L301.599 663.634C301.309 663.878 301.182 664.266 301.271 664.634L305.276 681.137C305.485 682 304.55 682.687 303.789 682.23L289.015 673.359C288.698 673.169 288.302 673.169 287.985 673.359L273.211 682.23C272.45 682.687 271.515 682 271.724 681.137L275.729 664.634C275.818 664.266 275.691 663.878 275.401 663.634L262.309 652.609C261.625 652.033 261.983 650.917 262.874 650.847L280.091 649.49C280.464 649.461 280.788 649.227 280.934 648.883L287.579 633.177Z" fill="white"/>
<path d="M259.575 186.385L223.441 54.989" stroke="white" stroke-width="5" stroke-linecap="round"/>
<path d="M144.604 261.938L59.1961 268.507" stroke="white" stroke-width="5" stroke-linecap="round"/>
<path d="M246.436 219.234L190.592 245.513" stroke="white" stroke-width="5" stroke-linecap="round"/>
<path d="M223.441 376.909L180.738 284.932" stroke="white" stroke-width="5" stroke-linecap="round"/>
<path d="M325.273 298.072L282.57 235.658" stroke="white" stroke-width="5" stroke-linecap="round"/>
<path d="M407.396 353.915L358.122 324.351" stroke="white" stroke-width="5" stroke-linecap="round"/>
<path d="M407.396 370.339L266.145 390.049" stroke="white" stroke-width="5" stroke-linecap="round"/>
<path d="M193.877 468.886L221 424" stroke="white" stroke-width="5" stroke-linecap="round"/>
<path d="M174.167 610.137L184.022 511.59" stroke="white" stroke-width="5" stroke-linecap="round"/>
<path d="M423.82 495.166L427.105 390.049" stroke="white" stroke-width="5" stroke-linecap="round"/>
<path d="M353 540L400.826 528.015" stroke="white" stroke-width="5" stroke-linecap="round"/>
<path d="M322 579L322 571" stroke="white" stroke-width="5" stroke-linecap="round"/>
<path d="M298.994 642.986L304 635" stroke="white" stroke-width="5" stroke-linecap="round"/>
</svg>
