<svg width="641" height="490" viewBox="0 0 641 490" fill="none" xmlns="http://www.w3.org/2000/svg">
<path d="M610.572 2.30617C610.908 1.47047 612.092 1.47047 612.428 2.30617L619.073 18.8238C619.214 19.1747 619.541 19.416 619.918 19.4472L637.224 20.8816C638.101 20.9544 638.463 22.0432 637.804 22.6268L624.57 34.3471C624.296 34.59 624.177 34.9635 624.259 35.3205L628.293 52.8072C628.494 53.6774 627.54 54.3544 626.785 53.8775L612.034 44.5622C611.708 44.3562 611.292 44.3562 610.966 44.5622L596.215 53.8775C595.46 54.3544 594.506 53.6774 594.707 52.8072L598.741 35.3205C598.823 34.9635 598.704 34.59 598.43 34.3471L585.196 22.6268C584.537 22.0432 584.899 20.9544 585.776 20.8816L603.082 19.4472C603.459 19.416 603.786 19.1747 603.927 18.8238L610.572 2.30617Z" fill="white"/>
<path d="M603.077 71.2199C603.418 70.3986 604.582 70.3986 604.923 71.2199L611.701 87.5143C611.845 87.8605 612.17 88.0971 612.544 88.1271L630.135 89.5374C631.022 89.6084 631.381 90.7149 630.706 91.2936L617.303 102.774C617.018 103.018 616.894 103.401 616.981 103.766L621.076 120.932C621.282 121.797 620.341 122.481 619.582 122.017L604.521 112.818C604.201 112.623 603.799 112.623 603.479 112.818L588.418 122.017C587.659 122.481 586.718 121.797 586.924 120.932L591.019 103.766C591.106 103.401 590.982 103.018 590.697 102.774L577.294 91.2936C576.619 90.7149 576.978 89.6084 577.865 89.5374L595.456 88.1271C595.83 88.0971 596.155 87.8605 596.299 87.5143L603.077 71.2199Z" fill="white"/>
<path d="M508.079 384.177C508.423 383.364 509.577 383.364 509.921 384.177L516.698 400.201C516.844 400.545 517.169 400.779 517.541 400.808L535.102 402.192C535.993 402.263 536.351 403.378 535.668 403.954L522.313 415.203C522.023 415.448 521.896 415.835 521.985 416.204L526.07 433.041C526.279 433.904 525.344 434.591 524.583 434.134L509.515 425.084C509.198 424.894 508.802 424.894 508.485 425.084L493.417 434.134C492.656 434.591 491.721 433.904 491.93 433.041L496.015 416.204C496.104 415.835 495.977 415.448 495.687 415.203L482.332 403.954C481.649 403.378 482.007 402.263 482.898 402.192L500.459 400.808C500.831 400.779 501.156 400.545 501.302 400.201L508.079 384.177Z" fill="white"/>
<path d="M491.074 433.264C491.413 432.435 492.587 432.435 492.926 433.264L499.438 449.192C499.581 449.541 499.907 449.78 500.283 449.81L517.217 451.191C518.099 451.263 518.46 452.361 517.793 452.942L504.865 464.206C504.586 464.45 504.464 464.828 504.549 465.189L508.494 482.013C508.697 482.88 507.75 483.561 506.993 483.09L492.528 474.103C492.205 473.902 491.795 473.902 491.472 474.103L477.007 483.09C476.25 483.561 475.303 482.88 475.506 482.013L479.451 465.189C479.536 464.828 479.414 464.45 479.135 464.206L466.207 452.942C465.54 452.361 465.901 451.263 466.783 451.191L483.717 449.81C484.093 449.78 484.419 449.541 484.562 449.192L491.074 433.264Z" fill="white"/>
<path d="M376.074 407.264C376.413 406.435 377.587 406.435 377.926 407.264L384.438 423.192C384.581 423.541 384.907 423.78 385.283 423.81L402.217 425.191C403.099 425.263 403.46 426.361 402.793 426.942L389.865 438.206C389.586 438.45 389.464 438.828 389.549 439.189L393.494 456.013C393.697 456.88 392.75 457.561 391.993 457.09L377.528 448.103C377.205 447.902 376.795 447.902 376.472 448.103L362.007 457.09C361.25 457.561 360.303 456.88 360.506 456.013L364.451 439.189C364.536 438.828 364.414 438.45 364.135 438.206L351.207 426.942C350.54 426.361 350.901 425.263 351.783 425.191L368.717 423.81C369.093 423.78 369.419 423.541 369.562 423.192L376.074 407.264Z" fill="white"/>
<path d="M238.577 374.22C238.918 373.399 240.082 373.399 240.423 374.22L247.068 390.196C247.212 390.543 247.538 390.779 247.912 390.809L265.16 392.192C266.046 392.263 266.406 393.369 265.73 393.948L252.589 405.205C252.304 405.449 252.18 405.832 252.267 406.196L256.282 423.027C256.488 423.893 255.547 424.576 254.788 424.113L240.021 415.093C239.701 414.898 239.299 414.898 238.979 415.093L224.212 424.113C223.453 424.576 222.512 423.893 222.718 423.027L226.733 406.196C226.82 405.832 226.696 405.449 226.411 405.205L213.27 393.948C212.594 393.369 212.954 392.263 213.84 392.192L231.088 390.809C231.462 390.779 231.788 390.543 231.932 390.196L238.577 374.22Z" fill="white"/>
<path d="M199.574 354.263C199.913 353.434 201.087 353.434 201.426 354.263L208.07 370.51C208.213 370.859 208.539 371.098 208.915 371.128L226.192 372.537C227.074 372.609 227.435 373.706 226.768 374.287L213.58 385.776C213.3 386.019 213.178 386.397 213.263 386.758L217.288 403.917C217.491 404.785 216.544 405.465 215.786 404.995L201.028 395.828C200.705 395.627 200.295 395.627 199.972 395.828L185.214 404.995C184.456 405.465 183.509 404.785 183.712 403.917L187.737 386.758C187.822 386.397 187.7 386.019 187.42 385.776L174.232 374.287C173.565 373.706 173.926 372.609 174.808 372.537L192.085 371.128C192.461 371.098 192.787 370.859 192.93 370.51L199.574 354.263Z" fill="white"/>
<path d="M134.074 318.264C134.413 317.435 135.587 317.435 135.926 318.264L142.438 334.192C142.581 334.541 142.907 334.78 143.283 334.81L160.217 336.191C161.099 336.263 161.46 337.361 160.793 337.942L147.865 349.206C147.586 349.45 147.464 349.828 147.549 350.189L151.494 367.013C151.697 367.88 150.75 368.561 149.993 368.09L135.528 359.103C135.205 358.902 134.795 358.902 134.472 359.103L120.007 368.09C119.25 368.561 118.303 367.88 118.506 367.013L122.451 350.189C122.536 349.828 122.414 349.45 122.135 349.206L109.207 337.942C108.54 337.361 108.901 336.263 109.783 336.191L126.717 334.81C127.093 334.78 127.419 334.541 127.562 334.192L134.074 318.264Z" fill="white"/>
<path d="M28.579 253.177C28.9234 252.363 30.0766 252.363 30.421 253.177L37.0661 268.883C37.2116 269.227 37.5364 269.461 37.9085 269.49L55.1258 270.847C56.0173 270.917 56.3754 272.033 55.6914 272.609L42.599 283.634C42.3088 283.878 42.1818 284.266 42.2713 284.634L46.2757 301.137C46.485 302 45.5501 302.687 44.7891 302.23L30.0148 293.359C29.698 293.169 29.302 293.169 28.9852 293.359L14.2109 302.23C13.4499 302.687 12.515 302 12.7243 301.137L16.7287 284.634C16.8182 284.266 16.6912 283.878 16.401 283.634L3.30859 272.609C2.62459 272.033 2.9827 270.917 3.87415 270.847L21.0915 269.49C21.4636 269.461 21.7884 269.227 21.9339 268.883L28.579 253.177Z" fill="white"/>
<path d="M87.579 253.177C87.9234 252.363 89.0766 252.363 89.421 253.177L96.0661 268.883C96.2116 269.227 96.5364 269.461 96.9085 269.49L114.126 270.847C115.017 270.917 115.375 272.033 114.691 272.609L101.599 283.634C101.309 283.878 101.182 284.266 101.271 284.634L105.276 301.137C105.485 302 104.55 302.687 103.789 302.23L89.0148 293.359C88.698 293.169 88.302 293.169 87.9852 293.359L73.2109 302.23C72.4499 302.687 71.515 302 71.7243 301.137L75.7287 284.634C75.8182 284.266 75.6912 283.878 75.401 283.634L62.3086 272.609C61.6246 272.033 61.9827 270.917 62.8742 270.847L80.0915 269.49C80.4636 269.461 80.7884 269.227 80.9339 268.883L87.579 253.177Z" fill="white"/>
<path d="M199.577 223.22C199.918 222.399 201.082 222.399 201.423 223.22L208.068 239.196C208.212 239.543 208.538 239.779 208.912 239.809L226.16 241.192C227.046 241.263 227.406 242.369 226.73 242.948L213.589 254.205C213.304 254.449 213.18 254.832 213.267 255.196L217.282 272.027C217.488 272.893 216.547 273.576 215.788 273.113L201.021 264.093C200.701 263.898 200.299 263.898 199.979 264.093L185.212 273.113C184.453 273.576 183.512 272.893 183.718 272.027L187.733 255.196C187.82 254.832 187.696 254.449 187.411 254.205L174.27 242.948C173.594 242.369 173.954 241.263 174.84 241.192L192.088 239.809C192.462 239.779 192.788 239.543 192.932 239.196L199.577 223.22Z" fill="white"/>
<path d="M320.581 203.136C320.928 202.33 322.072 202.33 322.419 203.136L329.329 219.205C329.475 219.546 329.799 219.778 330.17 219.807L348.044 221.193C348.94 221.262 349.297 222.387 348.605 222.96L335.036 234.202C334.741 234.447 334.612 234.839 334.703 235.211L338.857 252.055C339.07 252.915 338.141 253.606 337.378 253.155L322.009 244.075C321.695 243.89 321.305 243.89 320.991 244.075L305.622 253.155C304.859 253.606 303.93 252.915 304.143 252.055L308.297 235.211C308.388 234.839 308.259 234.447 307.964 234.202L294.395 222.96C293.703 222.387 294.06 221.262 294.956 221.193L312.83 219.807C313.201 219.778 313.525 219.546 313.671 219.205L320.581 203.136Z" fill="white"/>
<path d="M114.777 332.547L49.0793 286.559" stroke="white" stroke-width="5" stroke-linecap="round"/>
<path d="M62.2192 276.704L55.6494 276.704" stroke="white" stroke-width="5" stroke-linecap="round"/>
<path d="M180.476 256.995L120 271" stroke="white" stroke-width="5" stroke-linecap="round"/>
<path d="M302.017 234L226.464 245.251" stroke="white" stroke-width="5" stroke-linecap="round"/>
<path d="M584.518 105.889L348.005 214.291" stroke="white" stroke-width="5" stroke-linecap="round"/>
<path d="M609.844 49.9497L610 73" stroke="white" stroke-width="5" stroke-linecap="round"/>
<path d="M599.035 122.314L518.821 391.676" stroke="white" stroke-width="5" stroke-linecap="round"/>
<path d="M507.058 431.094L502.396 444.234" stroke="white" stroke-width="5" stroke-linecap="round"/>
<path d="M461 452L397.279 437.664" stroke="white" stroke-width="5" stroke-linecap="round"/>
<path d="M346 424L265.883 404.815" stroke="white" stroke-width="5" stroke-linecap="round"/>
<path d="M177.19 368.681L154.196 355.542" stroke="white" stroke-width="5" stroke-linecap="round"/>
</svg>
