<svg width="638" height="498" viewBox="0 0 638 498" fill="none" xmlns="http://www.w3.org/2000/svg">
<path d="M42.0745 2.26236C42.4134 1.43389 43.5866 1.43388 43.9255 2.26236L50.7027 18.8281C50.8453 19.1766 51.1716 19.4155 51.547 19.4461L69.1671 20.8823C70.0491 20.9541 70.41 22.0519 69.7426 22.6331L56.2937 34.3455C56.0142 34.5889 55.8922 34.9671 55.9769 35.328L60.0815 52.8221C60.2851 53.6898 59.3376 54.3702 58.5804 53.9001L43.5275 44.5526C43.2045 44.352 42.7955 44.352 42.4725 44.5526L27.4196 53.9001C26.6624 54.3702 25.7149 53.6898 25.9185 52.8221L30.0231 35.328C30.1078 34.9671 29.9858 34.5889 29.7063 34.3455L16.2574 22.6331C15.59 22.0519 15.9509 20.9541 16.8329 20.8823L34.453 19.4461C34.8284 19.4155 35.1547 19.1766 35.2973 18.8281L42.0745 2.26236Z" fill="white"/>
<path d="M29.0814 40.1349C29.4284 39.3286 30.5716 39.3286 30.9186 40.1349L37.6963 55.8872C37.8431 56.2286 38.1671 56.4603 38.5376 56.489L56.0676 57.8475C56.9638 57.917 57.3204 59.0415 56.6281 59.6148L43.3227 70.6323C43.0271 70.8771 42.8977 71.2695 42.9897 71.6421L47.0633 88.1507C47.2756 89.0109 46.347 89.7019 45.584 89.2514L30.5084 80.3502C30.1948 80.165 29.8052 80.165 29.4916 80.3502L14.416 89.2514C13.653 89.7019 12.7244 89.0109 12.9367 88.1507L17.0103 71.6421C17.1023 71.2695 16.9729 70.8771 16.6773 70.6323L3.37189 59.6148C2.67957 59.0415 3.03624 57.917 3.9324 57.8475L21.4624 56.489C21.8329 56.4603 22.1569 56.2286 22.3037 55.8872L29.0814 40.1349Z" fill="white"/>
<path d="M48.579 59.1767C48.9234 58.3629 50.0766 58.3629 50.421 59.1767L57.0661 74.8828C57.2116 75.2266 57.5364 75.4607 57.9085 75.4901L75.1258 76.847C76.0173 76.9172 76.3754 78.0328 75.6914 78.6088L62.599 89.6338C62.3088 89.8782 62.1818 90.2658 62.2713 90.6345L66.2757 107.137C66.485 108 65.5501 108.687 64.7891 108.23L50.0148 99.3591C49.698 99.1689 49.302 99.1689 48.9852 99.3591L34.2109 108.23C33.4499 108.687 32.515 108 32.7243 107.137L36.7287 90.6345C36.8182 90.2658 36.6912 89.8782 36.401 89.6338L23.3086 78.6088C22.6246 78.0328 22.9827 76.9172 23.8742 76.847L41.0915 75.4901C41.4636 75.4607 41.7884 75.2266 41.9339 74.8828L48.579 59.1767Z" fill="white"/>
<path d="M85.0744 86.2638C85.4132 85.4351 86.5868 85.4351 86.9256 86.2638L93.4382 102.192C93.5808 102.541 93.9071 102.78 94.2826 102.81L111.217 104.191C112.099 104.263 112.46 105.361 111.793 105.942L98.8654 117.206C98.5861 117.45 98.4642 117.828 98.5488 118.189L102.494 135.013C102.697 135.88 101.75 136.561 100.993 136.09L86.5278 127.103C86.2046 126.902 85.7954 126.902 85.4722 127.103L71.0074 136.09C70.2503 136.561 69.3026 135.88 69.5061 135.013L73.4512 118.189C73.5358 117.828 73.4139 117.45 73.1346 117.206L60.2072 105.942C59.5401 105.361 59.901 104.263 60.7829 104.191L77.7174 102.81C78.0929 102.78 78.4192 102.541 78.5618 102.192L85.0744 86.2638Z" fill="white"/>
<path d="M124.074 124.262C124.413 123.434 125.587 123.434 125.926 124.262L132.703 140.828C132.845 141.177 133.172 141.416 133.547 141.446L151.167 142.882C152.049 142.954 152.41 144.052 151.743 144.633L138.294 156.345C138.014 156.589 137.892 156.967 137.977 157.328L142.082 174.822C142.285 175.69 141.338 176.37 140.58 175.9L125.528 166.553C125.204 166.352 124.796 166.352 124.472 166.553L109.42 175.9C108.662 176.37 107.715 175.69 107.918 174.822L112.023 157.328C112.108 156.967 111.986 156.589 111.706 156.345L98.2574 144.633C97.59 144.052 97.9509 142.954 98.8329 142.882L116.453 141.446C116.828 141.416 117.155 141.177 117.297 140.828L124.074 124.262Z" fill="white"/>
<path d="M111.574 233.263C111.913 232.434 113.087 232.434 113.426 233.263L120.07 249.51C120.213 249.859 120.539 250.098 120.915 250.128L138.192 251.537C139.074 251.609 139.435 252.706 138.768 253.287L125.58 264.776C125.3 265.019 125.178 265.397 125.263 265.758L129.288 282.917C129.491 283.785 128.544 284.465 127.786 283.995L113.028 274.828C112.705 274.627 112.295 274.627 111.972 274.828L97.2135 283.995C96.4564 284.465 95.5088 283.785 95.7123 282.917L99.7371 265.758C99.8218 265.397 99.6999 265.019 99.4204 264.776L86.2323 253.287C85.5651 252.706 85.926 251.609 86.8079 251.537L104.085 250.128C104.461 250.098 104.787 249.859 104.93 249.51L111.574 233.263Z" fill="white"/>
<path d="M118.074 332.264C118.413 331.435 119.587 331.435 119.926 332.264L126.438 348.192C126.581 348.541 126.907 348.78 127.283 348.81L144.217 350.191C145.099 350.263 145.46 351.361 144.793 351.942L131.865 363.206C131.586 363.45 131.464 363.828 131.549 364.189L135.494 381.013C135.697 381.88 134.75 382.561 133.993 382.09L119.528 373.103C119.205 372.902 118.795 372.902 118.472 373.103L104.007 382.09C103.25 382.561 102.303 381.88 102.506 381.013L106.451 364.189C106.536 363.828 106.414 363.45 106.135 363.206L93.2072 351.942C92.5401 351.361 92.901 350.263 93.7829 350.191L110.717 348.81C111.093 348.78 111.419 348.541 111.562 348.192L118.074 332.264Z" fill="white"/>
<path d="M113.574 440.263C113.913 439.434 115.087 439.434 115.426 440.263L122.07 456.51C122.213 456.859 122.539 457.098 122.915 457.128L140.192 458.537C141.074 458.609 141.435 459.706 140.768 460.287L127.58 471.776C127.3 472.019 127.178 472.397 127.263 472.758L131.288 489.917C131.491 490.785 130.544 491.465 129.786 490.995L115.028 481.828C114.705 481.627 114.295 481.627 113.972 481.828L99.2135 490.995C98.4564 491.465 97.5088 490.785 97.7123 489.917L101.737 472.758C101.822 472.397 101.7 472.019 101.42 471.776L88.2323 460.287C87.5651 459.706 87.926 458.609 88.8079 458.537L106.085 457.128C106.461 457.098 106.787 456.859 106.93 456.51L113.574 440.263Z" fill="white"/>
<path d="M141.074 417.264C141.413 416.435 142.587 416.435 142.926 417.264L149.438 433.192C149.581 433.541 149.907 433.78 150.283 433.81L167.217 435.191C168.099 435.263 168.46 436.361 167.793 436.942L154.865 448.206C154.586 448.45 154.464 448.828 154.549 449.189L158.494 466.013C158.697 466.88 157.75 467.561 156.993 467.09L142.528 458.103C142.205 457.902 141.795 457.902 141.472 458.103L127.007 467.09C126.25 467.561 125.303 466.88 125.506 466.013L129.451 449.189C129.536 448.828 129.414 448.45 129.135 448.206L116.207 436.942C115.54 436.361 115.901 435.263 116.783 435.191L133.717 433.81C134.093 433.78 134.419 433.541 134.562 433.192L141.074 417.264Z" fill="white"/>
<path d="M157.577 368.22C157.918 367.399 159.082 367.399 159.423 368.22L166.068 384.196C166.212 384.543 166.538 384.779 166.912 384.809L184.16 386.192C185.046 386.263 185.406 387.369 184.73 387.948L171.589 399.205C171.304 399.449 171.18 399.832 171.267 400.196L175.282 417.027C175.488 417.893 174.547 418.576 173.788 418.113L159.021 409.093C158.701 408.898 158.299 408.898 157.979 409.093L143.212 418.113C142.453 418.576 141.512 417.893 141.718 417.027L145.733 400.196C145.82 399.832 145.696 399.449 145.411 399.205L132.27 387.948C131.594 387.369 131.954 386.263 132.84 386.192L150.088 384.809C150.462 384.779 150.788 384.543 150.932 384.196L157.577 368.22Z" fill="white"/>
<path d="M186.574 338.263C186.913 337.434 188.087 337.434 188.426 338.263L195.07 354.51C195.213 354.859 195.539 355.098 195.915 355.128L213.192 356.537C214.074 356.609 214.435 357.706 213.768 358.287L200.58 369.776C200.3 370.019 200.178 370.397 200.263 370.758L204.288 387.917C204.491 388.785 203.544 389.465 202.786 388.995L188.028 379.828C187.705 379.627 187.295 379.627 186.972 379.828L172.214 388.995C171.456 389.465 170.509 388.785 170.712 387.917L174.737 370.758C174.822 370.397 174.7 370.019 174.42 369.776L161.232 358.287C160.565 357.706 160.926 356.609 161.808 356.537L179.085 355.128C179.461 355.098 179.787 354.859 179.93 354.51L186.574 338.263Z" fill="white"/>
<path d="M249.579 270.177C249.923 269.363 251.077 269.363 251.421 270.177L258.066 285.883C258.212 286.227 258.536 286.461 258.909 286.49L276.126 287.847C277.017 287.917 277.375 289.033 276.691 289.609L263.599 300.634C263.309 300.878 263.182 301.266 263.271 301.634L267.276 318.137C267.485 319 266.55 319.687 265.789 319.23L251.015 310.359C250.698 310.169 250.302 310.169 249.985 310.359L235.211 319.23C234.45 319.687 233.515 319 233.724 318.137L237.729 301.634C237.818 301.266 237.691 300.878 237.401 300.634L224.309 289.609C223.625 289.033 223.983 287.917 224.874 287.847L242.091 286.49C242.464 286.461 242.788 286.227 242.934 285.883L249.579 270.177Z" fill="white"/>
<path d="M295.079 243.177C295.423 242.364 296.577 242.364 296.921 243.177L303.698 259.201C303.844 259.545 304.169 259.779 304.541 259.808L322.102 261.192C322.993 261.263 323.351 262.378 322.668 262.954L309.313 274.203C309.023 274.448 308.896 274.835 308.985 275.204L313.07 292.041C313.279 292.904 312.344 293.591 311.583 293.134L296.515 284.084C296.198 283.894 295.802 283.894 295.485 284.084L280.417 293.134C279.656 293.591 278.721 292.904 278.93 292.041L283.015 275.204C283.104 274.835 282.977 274.448 282.687 274.203L269.332 262.954C268.649 262.378 269.007 261.263 269.898 261.192L287.459 259.808C287.831 259.779 288.156 259.545 288.302 259.201L295.079 243.177Z" fill="white"/>
<path d="M442.584 155.094C442.933 154.295 444.067 154.295 444.416 155.094L451.326 170.892C451.475 171.231 451.798 171.46 452.167 171.488L470.009 172.848C470.91 172.917 471.265 174.05 470.565 174.621L457.046 185.631C456.746 185.876 456.614 186.273 456.708 186.65L460.851 203.164C461.066 204.022 460.144 204.716 459.379 204.272L444.002 195.342C443.692 195.161 443.308 195.161 442.998 195.342L427.621 204.272C426.856 204.716 425.934 204.022 426.149 203.164L430.292 186.65C430.386 186.273 430.254 185.876 429.954 185.631L416.435 174.621C415.735 174.05 416.09 172.917 416.991 172.848L434.833 171.488C435.202 171.46 435.525 171.231 435.674 170.892L442.584 155.094Z" fill="white"/>
<path d="M512.079 128.177C512.423 127.364 513.577 127.364 513.921 128.177L520.698 144.201C520.844 144.545 521.169 144.779 521.541 144.808L539.102 146.192C539.993 146.263 540.351 147.378 539.668 147.954L526.313 159.203C526.023 159.448 525.896 159.835 525.985 160.204L530.07 177.041C530.279 177.904 529.344 178.591 528.583 178.134L513.515 169.084C513.198 168.894 512.802 168.894 512.485 169.084L497.417 178.134C496.656 178.591 495.721 177.904 495.93 177.041L500.015 160.204C500.104 159.835 499.977 159.448 499.687 159.203L486.332 147.954C485.649 147.378 486.007 146.263 486.898 146.192L504.459 144.808C504.831 144.779 505.156 144.545 505.302 144.201L512.079 128.177Z" fill="white"/>
<path d="M541.581 92.1363C541.928 91.3297 543.072 91.3297 543.419 92.1363L550.329 108.205C550.475 108.546 550.799 108.778 551.17 108.807L569.044 110.193C569.94 110.262 570.297 111.387 569.605 111.96L556.036 123.202C555.741 123.447 555.612 123.839 555.703 124.211L559.857 141.055C560.07 141.915 559.141 142.606 558.378 142.155L543.009 133.075C542.695 132.89 542.305 132.89 541.991 133.075L526.622 142.155C525.859 142.606 524.93 141.915 525.143 141.055L529.297 124.211C529.388 123.839 529.259 123.447 528.964 123.202L515.395 111.96C514.703 111.387 515.06 110.262 515.956 110.193L533.83 108.807C534.201 108.778 534.525 108.546 534.671 108.205L541.581 92.1363Z" fill="white"/>
<path d="M577.577 86.2199C577.918 85.3986 579.082 85.3986 579.423 86.2199L586.068 102.196C586.212 102.543 586.538 102.779 586.912 102.809L604.16 104.192C605.046 104.263 605.406 105.369 604.73 105.948L591.589 117.205C591.304 117.449 591.18 117.832 591.267 118.196L595.282 135.027C595.488 135.893 594.547 136.576 593.788 136.113L579.021 127.093C578.701 126.898 578.299 126.898 577.979 127.093L563.212 136.113C562.453 136.576 561.512 135.893 561.718 135.027L565.733 118.196C565.82 117.832 565.696 117.449 565.411 117.205L552.27 105.948C551.594 105.369 551.954 104.263 552.84 104.192L570.088 102.809C570.462 102.779 570.788 102.543 570.932 102.196L577.577 86.2199Z" fill="white"/>
<path d="M607.577 105.22C607.918 104.399 609.082 104.399 609.423 105.22L616.068 121.196C616.212 121.543 616.538 121.779 616.912 121.809L634.16 123.192C635.046 123.263 635.406 124.369 634.73 124.948L621.589 136.205C621.304 136.449 621.18 136.832 621.267 137.196L625.282 154.027C625.488 154.893 624.547 155.576 623.788 155.113L609.021 146.093C608.701 145.898 608.299 145.898 607.979 146.093L593.212 155.113C592.453 155.576 591.512 154.893 591.718 154.027L595.733 137.196C595.82 136.832 595.696 136.449 595.411 136.205L582.27 124.948C581.594 124.369 581.954 123.263 582.84 123.192L600.088 121.809C600.462 121.779 600.788 121.543 600.932 121.196L607.577 105.22Z" fill="white"/>
<path d="M591.077 155.22C591.418 154.399 592.582 154.399 592.923 155.22L599.436 170.878C599.58 171.225 599.906 171.461 600.279 171.491L617.184 172.846C618.071 172.917 618.43 174.024 617.755 174.603L604.875 185.635C604.59 185.879 604.466 186.262 604.553 186.627L608.488 203.123C608.694 203.988 607.753 204.672 606.994 204.208L592.521 195.368C592.201 195.173 591.799 195.173 591.479 195.368L577.006 204.208C576.247 204.672 575.306 203.988 575.512 203.123L579.447 186.627C579.534 186.262 579.41 185.879 579.125 185.635L566.245 174.603C565.57 174.024 565.929 172.917 566.816 172.846L583.721 171.491C584.094 171.461 584.42 171.225 584.564 170.878L591.077 155.22Z" fill="white"/>
<path d="M538.074 178.264C538.413 177.435 539.587 177.435 539.926 178.264L546.438 194.192C546.581 194.541 546.907 194.78 547.283 194.81L564.217 196.191C565.099 196.263 565.46 197.361 564.793 197.942L551.865 209.206C551.586 209.45 551.464 209.828 551.549 210.189L555.494 227.013C555.697 227.88 554.75 228.561 553.993 228.09L539.528 219.103C539.205 218.902 538.795 218.902 538.472 219.103L524.007 228.09C523.25 228.561 522.303 227.88 522.506 227.013L526.451 210.189C526.536 209.828 526.414 209.45 526.135 209.206L513.207 197.942C512.54 197.361 512.901 196.263 513.783 196.191L530.717 194.81C531.093 194.78 531.419 194.541 531.562 194.192L538.074 178.264Z" fill="white"/>
<path d="M105.444 129.308L112.014 135.878" stroke="white" stroke-width="5" stroke-linecap="round"/>
<path d="M122 173L117 230" stroke="white" stroke-width="5" stroke-linecap="round"/>
<path d="M115.299 280.414L117 328" stroke="white" stroke-width="5" stroke-linecap="round"/>
<path d="M118 379V430" stroke="white" stroke-width="5" stroke-linecap="round"/>
<path d="M154.718 415.094L151.433 424.949" stroke="white" stroke-width="5" stroke-linecap="round"/>
<path d="M230.271 316.547L200.706 349.396" stroke="white" stroke-width="5" stroke-linecap="round"/>
<path d="M278 278L269.689 283.698" stroke="white" stroke-width="5" stroke-linecap="round"/>
<path d="M424.08 191.721L318.963 257.419" stroke="white" stroke-width="5" stroke-linecap="round"/>
<path d="M493.063 162.157L474 170" stroke="white" stroke-width="5" stroke-linecap="round"/>
<path d="M529.196 188.436L526 181" stroke="white" stroke-width="5" stroke-linecap="round"/>
<path d="M567 194L575.185 188.436" stroke="white" stroke-width="5" stroke-linecap="round"/>
<path d="M601 164L604.749 152.302" stroke="white" stroke-width="5" stroke-linecap="round"/>
</svg>
