<svg width="568" height="513" viewBox="0 0 568 513" fill="none" xmlns="http://www.w3.org/2000/svg">
<path d="M28.5744 97.2631C28.9133 96.4345 30.0867 96.4345 30.4256 97.2631L37.0704 113.51C37.213 113.859 37.5394 114.098 37.9148 114.128L55.1921 115.537C56.074 115.609 56.4349 116.706 55.7677 117.287L42.5796 128.776C42.3001 129.019 42.1782 129.397 42.2629 129.758L46.2877 146.917C46.4912 147.785 45.5436 148.465 44.7865 147.995L30.0276 138.828C29.7045 138.627 29.2955 138.627 28.9724 138.828L14.2135 147.995C13.4564 148.465 12.5088 147.785 12.7123 146.917L16.7371 129.758C16.8218 129.397 16.6999 129.019 16.4204 128.776L3.2323 117.287C2.5651 116.706 2.92596 115.609 3.80789 115.537L21.0852 114.128C21.4606 114.098 21.787 113.859 21.9296 113.51L28.5744 97.2631Z" fill="white"/>
<path d="M126.577 2.21993C126.918 1.39864 128.082 1.39864 128.423 2.21993L135.068 18.1963C135.212 18.5426 135.538 18.7791 135.912 18.8091L153.16 20.1919C154.046 20.2629 154.406 21.3695 153.73 21.9481L140.589 33.2048C140.304 33.4488 140.18 33.8316 140.267 34.1963L144.282 51.0273C144.488 51.8926 143.547 52.5764 142.788 52.1128L128.021 43.0934C127.701 42.8979 127.299 42.8979 126.979 43.0934L112.212 52.1128C111.453 52.5764 110.512 51.8926 110.718 51.0273L114.733 34.1963C114.82 33.8316 114.696 33.4488 114.411 33.2048L101.27 21.9481C100.594 21.3695 100.954 20.2629 101.84 20.1919L119.088 18.8091C119.462 18.7791 119.788 18.5426 119.932 18.1963L126.577 2.21993Z" fill="white"/>
<path d="M278.077 172.22C278.418 171.399 279.582 171.399 279.923 172.22L286.701 188.514C286.845 188.861 287.17 189.097 287.544 189.127L305.135 190.537C306.022 190.608 306.381 191.715 305.706 192.294L292.303 203.774C292.018 204.018 291.894 204.401 291.981 204.766L296.076 221.932C296.282 222.797 295.341 223.481 294.582 223.017L279.521 213.818C279.201 213.623 278.799 213.623 278.479 213.818L263.418 223.017C262.659 223.481 261.718 222.797 261.924 221.932L266.019 204.766C266.106 204.401 265.982 204.018 265.697 203.774L252.294 192.294C251.619 191.715 251.978 190.608 252.865 190.537L270.456 189.127C270.83 189.097 271.155 188.861 271.299 188.514L278.077 172.22Z" fill="white"/>
<path d="M307.577 222.22C307.918 221.399 309.082 221.399 309.423 222.22L316.068 238.196C316.212 238.543 316.538 238.779 316.912 238.809L334.16 240.192C335.046 240.263 335.406 241.369 334.73 241.948L321.589 253.205C321.304 253.449 321.18 253.832 321.267 254.196L325.282 271.027C325.488 271.893 324.547 272.576 323.788 272.113L309.021 263.093C308.701 262.898 308.299 262.898 307.979 263.093L293.212 272.113C292.453 272.576 291.512 271.893 291.718 271.027L295.733 254.196C295.82 253.832 295.696 253.449 295.411 253.205L282.27 241.948C281.594 241.369 281.954 240.263 282.84 240.192L300.088 238.809C300.462 238.779 300.788 238.543 300.932 238.196L307.577 222.22Z" fill="white"/>
<path d="M238.577 241.22C238.918 240.399 240.082 240.399 240.423 241.22L247.333 257.832C247.477 258.179 247.802 258.415 248.176 258.445L266.111 259.883C266.997 259.954 267.357 261.06 266.681 261.639L253.017 273.344C252.732 273.588 252.608 273.971 252.695 274.335L256.87 291.836C257.076 292.702 256.135 293.385 255.376 292.922L240.021 283.543C239.701 283.348 239.299 283.348 238.979 283.543L223.624 292.922C222.865 293.385 221.924 292.702 222.13 291.836L226.305 274.335C226.392 273.971 226.268 273.588 225.983 273.344L212.319 261.639C211.643 261.06 212.003 259.954 212.889 259.883L230.824 258.445C231.198 258.415 231.523 258.179 231.667 257.832L238.577 241.22Z" fill="white"/>
<path d="M281.574 264.263C281.913 263.434 283.087 263.434 283.426 264.263L290.07 280.51C290.213 280.859 290.539 281.098 290.915 281.128L308.192 282.537C309.074 282.609 309.435 283.706 308.768 284.287L295.58 295.776C295.3 296.019 295.178 296.397 295.263 296.758L299.288 313.917C299.491 314.785 298.544 315.465 297.786 314.995L283.028 305.828C282.705 305.627 282.295 305.627 281.972 305.828L267.214 314.995C266.456 315.465 265.509 314.785 265.712 313.917L269.737 296.758C269.822 296.397 269.7 296.019 269.42 295.776L256.232 284.287C255.565 283.706 255.926 282.609 256.808 282.537L274.085 281.128C274.461 281.098 274.787 280.859 274.93 280.51L281.574 264.263Z" fill="white"/>
<path d="M320.577 281.22C320.918 280.399 322.082 280.399 322.423 281.22L329.068 297.196C329.212 297.543 329.538 297.779 329.912 297.809L347.16 299.192C348.046 299.263 348.406 300.369 347.73 300.948L334.589 312.205C334.304 312.449 334.18 312.832 334.267 313.196L338.282 330.027C338.488 330.893 337.547 331.576 336.788 331.113L322.021 322.093C321.701 321.898 321.299 321.898 320.979 322.093L306.212 331.113C305.453 331.576 304.512 330.893 304.718 330.027L308.733 313.196C308.82 312.832 308.696 312.449 308.411 312.205L295.27 300.948C294.594 300.369 294.954 299.263 295.84 299.192L313.088 297.809C313.462 297.779 313.788 297.543 313.932 297.196L320.577 281.22Z" fill="white"/>
<path d="M386.079 353.177C386.423 352.364 387.577 352.364 387.921 353.177L394.698 369.201C394.844 369.545 395.169 369.779 395.541 369.808L413.102 371.192C413.993 371.263 414.351 372.378 413.668 372.954L400.313 384.203C400.023 384.448 399.896 384.835 399.985 385.204L404.07 402.041C404.279 402.904 403.344 403.591 402.583 403.134L387.515 394.084C387.198 393.894 386.802 393.894 386.485 394.084L371.417 403.134C370.656 403.591 369.721 402.904 369.93 402.041L374.015 385.204C374.104 384.835 373.977 384.448 373.687 384.203L360.332 372.954C359.649 372.378 360.007 371.263 360.898 371.192L378.459 369.808C378.831 369.779 379.156 369.545 379.302 369.201L386.079 353.177Z" fill="white"/>
<path d="M521.072 422.308C521.408 421.472 522.592 421.472 522.928 422.308L529.44 438.506C529.582 438.857 529.909 439.098 530.286 439.129L547.249 440.536C548.126 440.609 548.488 441.697 547.83 442.281L534.856 453.778C534.582 454.021 534.463 454.394 534.545 454.751L538.5 471.902C538.7 472.773 537.746 473.449 536.991 472.972L522.534 463.838C522.208 463.631 521.792 463.631 521.466 463.838L507.009 472.972C506.254 473.449 505.3 472.773 505.5 471.902L509.455 454.751C509.537 454.394 509.418 454.021 509.144 453.778L496.17 442.281C495.512 441.697 495.874 440.609 496.751 440.536L513.714 439.129C514.091 439.098 514.418 438.857 514.56 438.506L521.072 422.308Z" fill="white"/>
<path d="M537.079 456.177C537.423 455.364 538.577 455.364 538.921 456.177L545.698 472.201C545.844 472.545 546.169 472.779 546.541 472.808L564.102 474.192C564.993 474.263 565.351 475.378 564.668 475.954L551.313 487.203C551.023 487.448 550.896 487.835 550.985 488.204L555.07 505.041C555.279 505.904 554.344 506.591 553.583 506.134L538.515 497.084C538.198 496.894 537.802 496.894 537.485 497.084L522.417 506.134C521.656 506.591 520.721 505.904 520.93 505.041L525.015 488.204C525.104 487.835 524.977 487.448 524.687 487.203L511.332 475.954C510.649 475.378 511.007 474.263 511.898 474.192L529.459 472.808C529.831 472.779 530.156 472.545 530.302 472.201L537.079 456.177Z" fill="white"/>
<path d="M148 54L263.503 179.313" stroke="white" stroke-width="5" stroke-linecap="round"/>
<path d="M292 225L295.285 234.855" stroke="white" stroke-width="5" stroke-linecap="round"/>
<path d="M311.569 269.12L314.854 282.259" stroke="white" stroke-width="5" stroke-linecap="round"/>
<path d="M341.134 328.248L373.983 364.382" stroke="white" stroke-width="5" stroke-linecap="round"/>
<path d="M406.831 390.661L495.523 436.65" stroke="white" stroke-width="5" stroke-linecap="round"/>
<path d="M51.0117 139.225L219.592 252.695" stroke="white" stroke-width="5" stroke-linecap="round"/>
</svg>
