<svg width="625" height="591" viewBox="0 0 625 591" fill="none" xmlns="http://www.w3.org/2000/svg">
<path d="M28.5767 139.22C28.9183 138.399 30.0817 138.399 30.4233 139.22L37.0683 155.196C37.2123 155.543 37.5379 155.779 37.9117 155.809L55.1596 157.192C56.0462 157.263 56.4058 158.369 55.7302 158.948L42.5891 170.205C42.3044 170.449 42.18 170.832 42.267 171.196L46.2818 188.027C46.4882 188.893 45.5469 189.576 44.7878 189.113L30.0213 180.093C29.7012 179.898 29.2988 179.898 28.9787 180.093L14.2122 189.113C13.4531 189.576 12.5118 188.893 12.7182 188.027L16.733 171.196C16.82 170.832 16.6956 170.449 16.4109 170.205L3.26979 158.948C2.59425 158.369 2.95378 157.263 3.84043 157.192L21.0883 155.809C21.4621 155.779 21.7877 155.543 21.9317 155.196L28.5767 139.22Z" fill="white"/>
<path d="M28.5723 237.306C28.9085 236.47 30.0915 236.47 30.4277 237.306L37.0726 253.824C37.2137 254.175 37.5408 254.416 37.9177 254.447L55.2235 255.882C56.1008 255.954 56.4629 257.043 55.8039 257.627L42.5703 269.347C42.296 269.59 42.1766 269.964 42.2589 270.321L46.2934 287.807C46.4942 288.677 45.5402 289.354 44.785 288.878L30.0339 279.562C29.7078 279.356 29.2922 279.356 28.9661 279.562L14.215 288.878C13.4598 289.354 12.5058 288.677 12.7066 287.807L16.7411 270.321C16.8234 269.964 16.704 269.59 16.4297 269.347L3.19606 257.627C2.53708 257.043 2.8992 255.954 3.77646 255.882L21.0823 254.447C21.4592 254.416 21.7863 254.175 21.9274 253.824L28.5723 237.306Z" fill="white"/>
<path d="M81.079 169.177C81.4233 168.364 82.5767 168.364 82.921 169.177L89.6984 185.201C89.8438 185.545 90.1687 185.779 90.5408 185.808L108.102 187.192C108.993 187.263 109.351 188.378 108.668 188.954L95.3128 200.203C95.0227 200.448 94.8958 200.835 94.9852 201.204L99.0697 218.041C99.2789 218.904 98.344 219.591 97.583 219.134L82.5149 210.084C82.198 209.894 81.802 209.894 81.4851 210.084L66.417 219.134C65.656 219.591 64.7211 218.904 64.9303 218.041L69.0148 201.204C69.1042 200.835 68.9773 200.448 68.6872 200.203L55.3324 188.954C54.6485 188.378 55.0067 187.263 55.8981 187.192L73.4592 185.808C73.8313 185.779 74.1562 185.545 74.3016 185.201L81.079 169.177Z" fill="white"/>
<path d="M140.072 152.308C140.408 151.472 141.592 151.472 141.928 152.308L148.44 168.506C148.582 168.857 148.909 169.098 149.286 169.129L166.249 170.536C167.126 170.609 167.488 171.697 166.83 172.281L153.856 183.778C153.582 184.021 153.463 184.394 153.545 184.751L157.5 201.902C157.7 202.773 156.746 203.449 155.991 202.972L141.534 193.838C141.208 193.631 140.792 193.631 140.466 193.838L126.009 202.972C125.254 203.449 124.3 202.773 124.5 201.902L128.455 184.751C128.537 184.394 128.418 184.021 128.144 183.778L115.17 172.281C114.512 171.697 114.874 170.609 115.751 170.536L132.714 169.129C133.091 169.098 133.418 168.857 133.56 168.506L140.072 152.308Z" fill="white"/>
<path d="M97.0744 47.2638C97.4132 46.4351 98.5868 46.4351 98.9256 47.2638L105.438 63.192C105.581 63.5406 105.907 63.7796 106.283 63.8102L123.217 65.1913C124.099 65.2632 124.46 66.3606 123.793 66.9419L110.865 78.2065C110.586 78.4499 110.464 78.8279 110.549 79.1887L114.494 96.0126C114.697 96.8804 113.75 97.5607 112.993 97.0903L98.5278 88.1029C98.2046 87.9021 97.7954 87.9021 97.4722 88.1029L83.0074 97.0903C82.2503 97.5607 81.3026 96.8804 81.5061 96.0126L85.4512 79.1887C85.5358 78.8279 85.4139 78.4499 85.1346 78.2065L72.2072 66.9419C71.5401 66.3606 71.901 65.2632 72.7829 65.1913L89.7174 63.8102C90.0929 63.7796 90.4192 63.5406 90.5618 63.192L97.0744 47.2638Z" fill="white"/>
<path d="M226.079 93.1774C226.423 92.3635 227.577 92.3635 227.921 93.1774L234.698 109.201C234.844 109.545 235.169 109.779 235.541 109.808L253.102 111.192C253.993 111.263 254.351 112.378 253.668 112.954L240.313 124.203C240.023 124.448 239.896 124.835 239.985 125.204L244.07 142.041C244.279 142.904 243.344 143.591 242.583 143.134L227.515 134.084C227.198 133.894 226.802 133.894 226.485 134.084L211.417 143.134C210.656 143.591 209.721 142.904 209.93 142.041L214.015 125.204C214.104 124.835 213.977 124.448 213.687 124.203L200.332 112.954C199.649 112.378 200.007 111.263 200.898 111.192L218.459 109.808C218.831 109.779 219.156 109.545 219.302 109.201L226.079 93.1774Z" fill="white"/>
<path d="M324.579 2.17673C324.923 1.36293 326.077 1.36293 326.421 2.17673L333.066 17.8828C333.212 18.2266 333.536 18.4607 333.909 18.4901L351.126 19.847C352.017 19.9172 352.375 21.0328 351.691 21.6088L338.599 32.6338C338.309 32.8782 338.182 33.2658 338.271 33.6345L342.276 50.1371C342.485 50.9998 341.55 51.6872 340.789 51.2302L326.015 42.3591C325.698 42.1689 325.302 42.1689 324.985 42.3591L310.211 51.2302C309.45 51.6872 308.515 50.9998 308.724 50.1371L312.729 33.6345C312.818 33.2658 312.691 32.8782 312.401 32.6338L299.309 21.6088C298.625 21.0328 298.983 19.9172 299.874 19.847L317.091 18.4901C317.464 18.4607 317.788 18.2266 317.934 17.8828L324.579 2.17673Z" fill="white"/>
<path d="M170.077 305.22C170.418 304.399 171.582 304.399 171.923 305.22L178.436 320.878C178.58 321.225 178.906 321.461 179.279 321.491L196.184 322.846C197.071 322.917 197.43 324.024 196.755 324.603L183.875 335.635C183.59 335.879 183.466 336.262 183.553 336.627L187.488 353.123C187.694 353.988 186.753 354.672 185.994 354.208L171.521 345.368C171.201 345.173 170.799 345.173 170.479 345.368L156.006 354.208C155.247 354.672 154.306 353.988 154.512 353.123L158.447 336.627C158.534 336.262 158.41 335.879 158.125 335.635L145.245 324.603C144.57 324.024 144.929 322.917 145.816 322.846L162.721 321.491C163.094 321.461 163.42 321.225 163.564 320.878L170.077 305.22Z" fill="white"/>
<path d="M176.577 438.22C176.918 437.399 178.082 437.399 178.423 438.22L185.068 454.196C185.212 454.543 185.538 454.779 185.912 454.809L203.16 456.192C204.046 456.263 204.406 457.369 203.73 457.948L190.589 469.205C190.304 469.449 190.18 469.832 190.267 470.196L194.282 487.027C194.488 487.893 193.547 488.576 192.788 488.113L178.021 479.093C177.701 478.898 177.299 478.898 176.979 479.093L162.212 488.113C161.453 488.576 160.512 487.893 160.718 487.027L164.733 470.196C164.82 469.832 164.696 469.449 164.411 469.205L151.27 457.948C150.594 457.369 150.954 456.263 151.84 456.192L169.088 454.809C169.462 454.779 169.788 454.543 169.932 454.196L176.577 438.22Z" fill="white"/>
<path d="M265.081 340.135C265.428 339.329 266.572 339.329 266.919 340.135L273.696 355.887C273.843 356.229 274.167 356.46 274.538 356.489L292.068 357.848C292.964 357.917 293.32 359.042 292.628 359.615L279.323 370.632C279.027 370.877 278.898 371.269 278.99 371.642L283.063 388.151C283.276 389.011 282.347 389.702 281.584 389.251L266.508 380.35C266.195 380.165 265.805 380.165 265.492 380.35L250.416 389.251C249.653 389.702 248.724 389.011 248.937 388.151L253.01 371.642C253.102 371.269 252.973 370.877 252.677 370.632L239.372 359.615C238.68 359.042 239.036 357.917 239.932 357.848L257.462 356.489C257.833 356.46 258.157 356.229 258.304 355.887L265.081 340.135Z" fill="white"/>
<path d="M376.574 221.263C376.913 220.434 378.087 220.434 378.426 221.263L385.07 237.51C385.213 237.859 385.539 238.098 385.915 238.128L403.192 239.537C404.074 239.609 404.435 240.706 403.768 241.287L390.58 252.776C390.3 253.019 390.178 253.397 390.263 253.758L394.288 270.917C394.491 271.785 393.544 272.465 392.786 271.995L378.028 262.828C377.705 262.627 377.295 262.627 376.972 262.828L362.214 271.995C361.456 272.465 360.509 271.785 360.712 270.917L364.737 253.758C364.822 253.397 364.7 253.019 364.42 252.776L351.232 241.287C350.565 240.706 350.926 239.609 351.808 239.537L369.085 238.128C369.461 238.098 369.787 237.859 369.93 237.51L376.574 221.263Z" fill="white"/>
<path d="M594.079 251.177C594.423 250.364 595.577 250.364 595.921 251.177L602.698 267.201C602.844 267.545 603.169 267.779 603.541 267.808L621.102 269.192C621.993 269.263 622.351 270.378 621.668 270.954L608.313 282.203C608.023 282.448 607.896 282.835 607.985 283.204L612.07 300.041C612.279 300.904 611.344 301.591 610.583 301.134L595.515 292.084C595.198 291.894 594.802 291.894 594.485 292.084L579.417 301.134C578.656 301.591 577.721 300.904 577.93 300.041L582.015 283.204C582.104 282.835 581.977 282.448 581.687 282.203L568.332 270.954C567.649 270.378 568.007 269.263 568.898 269.192L586.459 267.808C586.831 267.779 587.156 267.545 587.302 267.201L594.079 251.177Z" fill="white"/>
<path d="M550.577 281.22C550.918 280.399 552.082 280.399 552.423 281.22L559.068 297.196C559.212 297.543 559.538 297.779 559.912 297.809L577.16 299.192C578.046 299.263 578.406 300.369 577.73 300.948L564.589 312.205C564.304 312.449 564.18 312.832 564.267 313.196L568.282 330.027C568.488 330.893 567.547 331.576 566.788 331.113L552.021 322.093C551.701 321.898 551.299 321.898 550.979 322.093L536.212 331.113C535.453 331.576 534.512 330.893 534.718 330.027L538.733 313.196C538.82 312.832 538.696 312.449 538.411 312.205L525.27 300.948C524.594 300.369 524.954 299.263 525.84 299.192L543.088 297.809C543.462 297.779 543.788 297.543 543.932 297.196L550.577 281.22Z" fill="white"/>
<path d="M504.577 288.22C504.918 287.399 506.082 287.399 506.423 288.22L513.068 304.196C513.212 304.543 513.538 304.779 513.912 304.809L531.16 306.192C532.046 306.263 532.406 307.369 531.73 307.948L518.589 319.205C518.304 319.449 518.18 319.832 518.267 320.196L522.282 337.027C522.488 337.893 521.547 338.576 520.788 338.113L506.021 329.093C505.701 328.898 505.299 328.898 504.979 329.093L490.212 338.113C489.453 338.576 488.512 337.893 488.718 337.027L492.733 320.196C492.82 319.832 492.696 319.449 492.411 319.205L479.27 307.948C478.594 307.369 478.954 306.263 479.84 306.192L497.088 304.809C497.462 304.779 497.788 304.543 497.932 304.196L504.577 288.22Z" fill="white"/>
<path d="M469.081 347.135C469.428 346.329 470.572 346.329 470.919 347.135L477.696 362.887C477.843 363.229 478.167 363.46 478.538 363.489L496.068 364.848C496.964 364.917 497.32 366.042 496.628 366.615L483.323 377.632C483.027 377.877 482.898 378.269 482.99 378.642L487.063 395.151C487.276 396.011 486.347 396.702 485.584 396.251L470.508 387.35C470.195 387.165 469.805 387.165 469.492 387.35L454.416 396.251C453.653 396.702 452.724 396.011 452.937 395.151L457.01 378.642C457.102 378.269 456.973 377.877 456.677 377.632L443.372 366.615C442.68 366.042 443.036 364.917 443.932 364.848L461.462 363.489C461.833 363.46 462.157 363.229 462.304 362.887L469.081 347.135Z" fill="white"/>
<path d="M423.072 445.308C423.408 444.472 424.592 444.472 424.928 445.308L431.44 461.506C431.582 461.857 431.909 462.098 432.286 462.129L449.249 463.536C450.126 463.609 450.488 464.697 449.83 465.281L436.856 476.778C436.582 477.021 436.463 477.394 436.545 477.751L440.5 494.902C440.7 495.773 439.746 496.449 438.991 495.972L424.534 486.838C424.208 486.631 423.792 486.631 423.466 486.838L409.009 495.972C408.254 496.449 407.3 495.773 407.5 494.902L411.455 477.751C411.537 477.394 411.418 477.021 411.144 476.778L398.17 465.281C397.512 464.697 397.874 463.609 398.751 463.536L415.714 462.129C416.091 462.098 416.418 461.857 416.56 461.506L423.072 445.308Z" fill="white"/>
<path d="M376.577 534.22C376.918 533.399 378.082 533.399 378.423 534.22L385.068 550.196C385.212 550.543 385.538 550.779 385.912 550.809L403.16 552.192C404.046 552.263 404.406 553.369 403.73 553.948L390.589 565.205C390.304 565.449 390.18 565.832 390.267 566.196L394.282 583.027C394.488 583.893 393.547 584.576 392.788 584.113L378.021 575.093C377.701 574.898 377.299 574.898 376.979 575.093L362.212 584.113C361.453 584.576 360.512 583.893 360.718 583.027L364.733 566.196C364.82 565.832 364.696 565.449 364.411 565.205L351.27 553.948C350.594 553.369 350.954 552.263 351.84 552.192L369.088 550.809C369.462 550.779 369.788 550.543 369.932 550.196L376.577 534.22Z" fill="white"/>
<path d="M49.2593 176.858L59.114 183.427" stroke="white" stroke-width="5" stroke-linecap="round"/>
<path d="M42.6895 249.125L63 223" stroke="white" stroke-width="5" stroke-linecap="round"/>
<path d="M160.946 314.823L101 223" stroke="white" stroke-width="5" stroke-linecap="round"/>
<path d="M172.851 436.167L171 354" stroke="white" stroke-width="5" stroke-linecap="round"/>
<path d="M354.755 548.051L200.365 479.068" stroke="white" stroke-width="5" stroke-linecap="round"/>
<path d="M407.313 456.074L285.772 377.237" stroke="white" stroke-width="5" stroke-linecap="round"/>
<path d="M243.068 354.242L193.795 337.818" stroke="white" stroke-width="5" stroke-linecap="round"/>
<path d="M122.908 187.257L110.232 192.028" stroke="white" stroke-width="5" stroke-linecap="round"/>
<path d="M206.934 130.869L160.945 163.718" stroke="white" stroke-width="5" stroke-linecap="round"/>
<path d="M200.364 107.875L118.242 81.5954" stroke="white" stroke-width="5" stroke-linecap="round"/>
<path d="M302.196 45.4615L239.783 104.59" stroke="white" stroke-width="5" stroke-linecap="round"/>
<path d="M361.325 232.701L249.638 137.439" stroke="white" stroke-width="5" stroke-linecap="round"/>
<path d="M459.872 354.242L397.458 272.12" stroke="white" stroke-width="5" stroke-linecap="round"/>
<path d="M482.866 301.684L397.459 255.695" stroke="white" stroke-width="5" stroke-linecap="round"/>
<path d="M574.843 288.544L568.273 291.829" stroke="white" stroke-width="5" stroke-linecap="round"/>
</svg>
