<svg width="626" height="407" viewBox="0 0 626 407" fill="none" xmlns="http://www.w3.org/2000/svg">
<path d="M28.0722 234.308C28.4083 233.472 29.5917 233.472 29.9278 234.308L36.4404 250.506C36.5815 250.857 36.9086 251.098 37.2856 251.129L54.2491 252.536C55.1262 252.609 55.4883 253.697 54.8296 254.281L41.856 265.778C41.5819 266.021 41.4625 266.394 41.5448 266.751L45.4997 283.902C45.7004 284.773 44.7462 285.449 43.9911 284.972L29.5342 275.838C29.2079 275.631 28.7921 275.631 28.4658 275.838L14.0089 284.972C13.2538 285.449 12.2996 284.773 12.5003 283.902L16.4552 266.751C16.5375 266.394 16.4181 266.021 16.144 265.778L3.17036 254.281C2.51166 253.697 2.87382 252.609 3.75093 252.536L20.7144 251.129C21.0914 251.098 21.4185 250.857 21.5596 250.506L28.0722 234.308Z" fill="white"/>
<path d="M112.577 186.22C112.918 185.399 114.082 185.399 114.423 186.22L121.068 202.196C121.212 202.543 121.538 202.779 121.912 202.809L139.16 204.192C140.046 204.263 140.406 205.369 139.73 205.948L126.589 217.205C126.304 217.449 126.18 217.832 126.267 218.196L130.282 235.027C130.488 235.893 129.547 236.576 128.788 236.113L114.021 227.093C113.701 226.898 113.299 226.898 112.979 227.093L98.2122 236.113C97.4531 236.576 96.5118 235.893 96.7182 235.027L100.733 218.196C100.82 217.832 100.696 217.449 100.411 217.205L87.2698 205.948C86.5943 205.369 86.9538 204.263 87.8404 204.192L105.088 202.809C105.462 202.779 105.788 202.543 105.932 202.196L112.577 186.22Z" fill="white"/>
<path d="M155.074 156.264C155.413 155.435 156.587 155.435 156.926 156.264L163.438 172.192C163.581 172.541 163.907 172.78 164.283 172.81L181.217 174.191C182.099 174.263 182.46 175.361 181.793 175.942L168.865 187.206C168.586 187.45 168.464 187.828 168.549 188.189L172.494 205.013C172.697 205.88 171.75 206.561 170.993 206.09L156.528 197.103C156.205 196.902 155.795 196.902 155.472 197.103L141.007 206.09C140.25 206.561 139.303 205.88 139.506 205.013L143.451 188.189C143.536 187.828 143.414 187.45 143.135 187.206L130.207 175.942C129.54 175.361 129.901 174.263 130.783 174.191L147.717 172.81C148.093 172.78 148.419 172.541 148.562 172.192L155.074 156.264Z" fill="white"/>
<path d="M188.072 70.3077C188.408 69.4717 189.592 69.4717 189.928 70.3077L196.44 86.5057C196.582 86.8567 196.909 87.098 197.286 87.1293L214.249 88.5361C215.126 88.6089 215.488 89.6974 214.83 90.2811L201.856 101.778C201.582 102.021 201.463 102.394 201.545 102.751L205.5 119.902C205.7 120.773 204.746 121.449 203.991 120.972L189.534 111.838C189.208 111.631 188.792 111.631 188.466 111.838L174.009 120.972C173.254 121.449 172.3 120.773 172.5 119.902L176.455 102.751C176.537 102.394 176.418 102.021 176.144 101.778L163.17 90.2811C162.512 89.6974 162.874 88.6089 163.751 88.5361L180.714 87.1293C181.091 87.098 181.418 86.8567 181.56 86.5057L188.072 70.3077Z" fill="white"/>
<path d="M122.074 8.26382C122.413 7.4351 123.587 7.4351 123.926 8.26382L130.438 24.192C130.581 24.5406 130.907 24.7796 131.283 24.8102L148.217 26.1913C149.099 26.2632 149.46 27.3606 148.793 27.9419L135.865 39.2065C135.586 39.4499 135.464 39.8279 135.549 40.1887L139.494 57.0126C139.697 57.8804 138.75 58.5607 137.993 58.0903L123.528 49.1029C123.205 48.9021 122.795 48.9021 122.472 49.1029L108.007 58.0903C107.25 58.5607 106.303 57.8804 106.506 57.0126L110.451 40.1887C110.536 39.8279 110.414 39.4499 110.135 39.2065L97.2072 27.9419C96.5401 27.3606 96.901 26.2632 97.7829 26.1913L114.717 24.8102C115.093 24.7796 115.419 24.5406 115.562 24.192L122.074 8.26382Z" fill="white"/>
<path d="M303.579 2.17673C303.923 1.36293 305.077 1.36293 305.421 2.17673L312.066 17.8828C312.212 18.2266 312.536 18.4607 312.909 18.4901L330.126 19.847C331.017 19.9172 331.375 21.0328 330.691 21.6088L317.599 32.6338C317.309 32.8782 317.182 33.2658 317.271 33.6345L321.276 50.1371C321.485 50.9998 320.55 51.6872 319.789 51.2302L305.015 42.3591C304.698 42.1689 304.302 42.1689 303.985 42.3591L289.211 51.2302C288.45 51.6872 287.515 50.9998 287.724 50.1371L291.729 33.6345C291.818 33.2658 291.691 32.8782 291.401 32.6338L278.309 21.6088C277.625 21.0328 277.983 19.9172 278.874 19.847L296.091 18.4901C296.464 18.4607 296.788 18.2266 296.934 17.8828L303.579 2.17673Z" fill="white"/>
<path d="M326.579 15.1767C326.923 14.3629 328.077 14.3629 328.421 15.1767L335.066 30.8828C335.212 31.2266 335.536 31.4607 335.909 31.4901L353.126 32.847C354.017 32.9172 354.375 34.0328 353.691 34.6088L340.599 45.6338C340.309 45.8782 340.182 46.2658 340.271 46.6345L344.276 63.1371C344.485 63.9998 343.55 64.6872 342.789 64.2302L328.015 55.3591C327.698 55.1689 327.302 55.1689 326.985 55.3591L312.211 64.2302C311.45 64.6872 310.515 63.9998 310.724 63.1371L314.729 46.6345C314.818 46.2658 314.691 45.8782 314.401 45.6338L301.309 34.6088C300.625 34.0328 300.983 32.9172 301.874 32.847L319.091 31.4901C319.464 31.4607 319.788 31.2266 319.934 30.8828L326.579 15.1767Z" fill="white"/>
<path d="M342.081 48.1349C342.428 47.3286 343.572 47.3286 343.919 48.1349L350.696 63.8872C350.843 64.2286 351.167 64.4603 351.538 64.489L369.068 65.8475C369.964 65.917 370.32 67.0415 369.628 67.6148L356.323 78.6323C356.027 78.8771 355.898 79.2695 355.99 79.6421L360.063 96.1507C360.276 97.0109 359.347 97.7019 358.584 97.2514L343.508 88.3502C343.195 88.165 342.805 88.165 342.492 88.3502L327.416 97.2514C326.653 97.7019 325.724 97.0109 325.937 96.1507L330.01 79.6421C330.102 79.2695 329.973 78.8771 329.677 78.6323L316.372 67.6148C315.68 67.0415 316.036 65.917 316.932 65.8475L334.462 64.489C334.833 64.4603 335.157 64.2286 335.304 63.8872L342.081 48.1349Z" fill="white"/>
<path d="M402.081 65.1349C402.428 64.3286 403.572 64.3286 403.919 65.1349L410.696 80.8872C410.843 81.2286 411.167 81.4603 411.538 81.489L429.068 82.8475C429.964 82.917 430.32 84.0415 429.628 84.6148L416.323 95.6323C416.027 95.8771 415.898 96.2695 415.99 96.6421L420.063 113.151C420.276 114.011 419.347 114.702 418.584 114.251L403.508 105.35C403.195 105.165 402.805 105.165 402.492 105.35L387.416 114.251C386.653 114.702 385.724 114.011 385.937 113.151L390.01 96.6421C390.102 96.2695 389.973 95.8771 389.677 95.6323L376.372 84.6148C375.68 84.0415 376.036 82.917 376.932 82.8475L394.462 81.489C394.833 81.4603 395.157 81.2286 395.304 80.8872L402.081 65.1349Z" fill="white"/>
<path d="M306.572 142.306C306.908 141.47 308.092 141.47 308.428 142.306L315.073 158.824C315.214 159.175 315.541 159.416 315.918 159.447L333.224 160.882C334.101 160.954 334.463 162.043 333.804 162.627L320.57 174.347C320.296 174.59 320.177 174.964 320.259 175.321L324.293 192.807C324.494 193.677 323.54 194.354 322.785 193.878L308.034 184.562C307.708 184.356 307.292 184.356 306.966 184.562L292.215 193.878C291.46 194.354 290.506 193.677 290.707 192.807L294.741 175.321C294.823 174.964 294.704 174.59 294.43 174.347L281.196 162.627C280.537 162.043 280.899 160.954 281.776 160.882L299.082 159.447C299.459 159.416 299.786 159.175 299.927 158.824L306.572 142.306Z" fill="white"/>
<path d="M296.584 245.094C296.933 244.295 298.067 244.295 298.416 245.094L305.326 260.892C305.475 261.231 305.798 261.46 306.167 261.488L324.009 262.848C324.91 262.917 325.265 264.05 324.565 264.621L311.046 275.631C310.746 275.876 310.614 276.273 310.708 276.65L314.851 293.164C315.066 294.022 314.144 294.716 313.379 294.272L298.002 285.342C297.692 285.161 297.308 285.161 296.998 285.342L281.621 294.272C280.856 294.716 279.934 294.022 280.149 293.164L284.292 276.65C284.386 276.273 284.254 275.876 283.954 275.631L270.435 264.621C269.735 264.05 270.09 262.917 270.991 262.848L288.833 261.488C289.202 261.46 289.525 261.231 289.674 260.892L296.584 245.094Z" fill="white"/>
<path d="M477.577 198.22C477.918 197.399 479.082 197.399 479.423 198.22L486.068 214.196C486.212 214.543 486.538 214.779 486.912 214.809L504.16 216.192C505.046 216.263 505.406 217.369 504.73 217.948L491.589 229.205C491.304 229.449 491.18 229.832 491.267 230.196L495.282 247.027C495.488 247.893 494.547 248.576 493.788 248.113L479.021 239.093C478.701 238.898 478.299 238.898 477.979 239.093L463.212 248.113C462.453 248.576 461.512 247.893 461.718 247.027L465.733 230.196C465.82 229.832 465.696 229.449 465.411 229.205L452.27 217.948C451.594 217.369 451.954 216.263 452.84 216.192L470.088 214.809C470.462 214.779 470.788 214.543 470.932 214.196L477.577 198.22Z" fill="white"/>
<path d="M595.079 350.177C595.423 349.364 596.577 349.364 596.921 350.177L603.698 366.201C603.844 366.545 604.169 366.779 604.541 366.808L622.102 368.192C622.993 368.263 623.351 369.378 622.668 369.954L609.313 381.203C609.023 381.448 608.896 381.835 608.985 382.204L613.07 399.041C613.279 399.904 612.344 400.591 611.583 400.134L596.515 391.084C596.198 390.894 595.802 390.894 595.485 391.084L580.417 400.134C579.656 400.591 578.721 399.904 578.93 399.041L583.015 382.204C583.104 381.835 582.977 381.448 582.687 381.203L569.332 369.954C568.649 369.378 569.007 368.263 569.898 368.192L587.459 366.808C587.831 366.779 588.156 366.545 588.302 366.201L595.079 350.177Z" fill="white"/>
<path d="M93.9741 219.576L47.9855 245.855" stroke="white" stroke-width="5" stroke-linecap="round"/>
<path d="M136.678 196.582L130.108 199.866" stroke="white" stroke-width="5" stroke-linecap="round"/>
<path d="M182.667 121.029L166.242 163.733" stroke="white" stroke-width="5" stroke-linecap="round"/>
<path d="M174 82L143.248 52.046" stroke="white" stroke-width="5" stroke-linecap="round"/>
<path d="M281.214 29.0515L149.818 32.3364" stroke="white" stroke-width="5" stroke-linecap="round"/>
<path d="M373 81L363.336 78.325" stroke="white" stroke-width="5" stroke-linecap="round"/>
<path d="M383.045 104.604L323.917 153.878" stroke="white" stroke-width="5" stroke-linecap="round"/>
<path d="M307.493 190.012L302 241" stroke="white" stroke-width="5" stroke-linecap="round"/>
<path d="M421 119L468.453 209.721" stroke="white" stroke-width="5" stroke-linecap="round"/>
<path d="M498 252L586.709 360.827" stroke="white" stroke-width="5" stroke-linecap="round"/>
</svg>
