<svg width="555" height="539" viewBox="0 0 555 539" fill="none" xmlns="http://www.w3.org/2000/svg">
<path d="M28.0722 153.308C28.4083 152.472 29.5917 152.472 29.9278 153.308L36.4404 169.506C36.5815 169.857 36.9086 170.098 37.2856 170.129L54.2491 171.536C55.1262 171.609 55.4883 172.697 54.8296 173.281L41.856 184.778C41.5819 185.021 41.4625 185.394 41.5448 185.751L45.4997 202.902C45.7004 203.773 44.7462 204.449 43.9911 203.972L29.5342 194.838C29.2079 194.631 28.7921 194.631 28.4658 194.838L14.0089 203.972C13.2538 204.449 12.2996 203.773 12.5003 202.902L16.4552 185.751C16.5375 185.394 16.4181 185.021 16.144 184.778L3.17036 173.281C2.51166 172.697 2.87382 171.609 3.75093 171.536L20.7144 170.129C21.0914 170.098 21.4185 169.857 21.5596 169.506L28.0722 153.308Z" fill="white"/>
<path d="M232.079 2.17745C232.423 1.36353 233.577 1.36353 233.921 2.17745L240.698 18.2007C240.844 18.5445 241.169 18.7787 241.541 18.8081L259.102 20.1925C259.993 20.2627 260.351 21.3781 259.668 21.9542L246.313 33.2033C246.023 33.4477 245.896 33.8352 245.985 34.2039L250.07 51.0414C250.279 51.9041 249.344 52.5915 248.583 52.1344L233.515 43.0842C233.198 42.8939 232.802 42.8939 232.485 43.0842L217.417 52.1344C216.656 52.5915 215.721 51.9041 215.93 51.0414L220.015 34.2039C220.104 33.8352 219.977 33.4477 219.687 33.2033L206.332 21.9542C205.649 21.3781 206.007 20.2627 206.898 20.1925L224.459 18.8081C224.831 18.7787 225.156 18.5445 225.302 18.2007L232.079 2.17745Z" fill="white"/>
<path d="M244.572 162.306C244.908 161.47 246.092 161.47 246.428 162.306L253.073 178.824C253.214 179.175 253.541 179.416 253.918 179.447L271.224 180.882C272.101 180.954 272.463 182.043 271.804 182.627L258.57 194.347C258.296 194.59 258.177 194.964 258.259 195.321L262.293 212.807C262.494 213.677 261.54 214.354 260.785 213.878L246.034 204.562C245.708 204.356 245.292 204.356 244.966 204.562L230.215 213.878C229.46 214.354 228.506 213.677 228.707 212.807L232.741 195.321C232.823 194.964 232.704 194.59 232.43 194.347L219.196 182.627C218.537 182.043 218.899 180.954 219.776 180.882L237.082 179.447C237.459 179.416 237.786 179.175 237.927 178.824L244.572 162.306Z" fill="white"/>
<path d="M445.574 153.263C445.913 152.434 447.087 152.434 447.426 153.263L454.07 169.51C454.213 169.859 454.539 170.098 454.915 170.128L472.192 171.537C473.074 171.609 473.435 172.706 472.768 173.287L459.58 184.776C459.3 185.019 459.178 185.397 459.263 185.758L463.288 202.917C463.491 203.785 462.544 204.465 461.786 203.995L447.028 194.828C446.705 194.627 446.295 194.627 445.972 194.828L431.214 203.995C430.456 204.465 429.509 203.785 429.712 202.917L433.737 185.758C433.822 185.397 433.7 185.019 433.42 184.776L420.232 173.287C419.565 172.706 419.926 171.609 420.808 171.537L438.085 170.128C438.461 170.098 438.787 169.859 438.93 169.51L445.574 153.263Z" fill="white"/>
<path d="M149.579 338.177C149.923 337.363 151.077 337.363 151.421 338.177L158.066 353.883C158.212 354.227 158.536 354.461 158.909 354.49L176.126 355.847C177.017 355.917 177.375 357.033 176.691 357.609L163.599 368.634C163.309 368.878 163.182 369.266 163.271 369.634L167.276 386.137C167.485 387 166.55 387.687 165.789 387.23L151.015 378.359C150.698 378.169 150.302 378.169 149.985 378.359L135.211 387.23C134.45 387.687 133.515 387 133.724 386.137L137.729 369.634C137.818 369.266 137.691 368.878 137.401 368.634L124.309 357.609C123.625 357.033 123.983 355.917 124.874 355.847L142.091 354.49C142.464 354.461 142.788 354.227 142.934 353.883L149.579 338.177Z" fill="white"/>
<path d="M179.581 482.136C179.928 481.33 181.072 481.33 181.419 482.136L188.329 498.205C188.475 498.546 188.799 498.778 189.17 498.807L207.044 500.193C207.94 500.262 208.297 501.387 207.605 501.96L194.036 513.202C193.741 513.447 193.612 513.839 193.703 514.211L197.857 531.055C198.07 531.915 197.141 532.606 196.378 532.155L181.009 523.075C180.695 522.89 180.305 522.89 179.991 523.075L164.622 532.155C163.859 532.606 162.93 531.915 163.143 531.055L167.297 514.211C167.388 513.839 167.259 513.447 166.964 513.202L153.395 501.96C152.703 501.387 153.06 500.262 153.956 500.193L171.83 498.807C172.201 498.778 172.525 498.546 172.671 498.205L179.581 482.136Z" fill="white"/>
<path d="M487.579 380.177C487.923 379.363 489.077 379.363 489.421 380.177L496.066 395.883C496.212 396.227 496.536 396.461 496.909 396.49L514.126 397.847C515.017 397.917 515.375 399.033 514.691 399.609L501.599 410.634C501.309 410.878 501.182 411.266 501.271 411.634L505.276 428.137C505.485 429 504.55 429.687 503.789 429.23L489.015 420.359C488.698 420.169 488.302 420.169 487.985 420.359L473.211 429.23C472.45 429.687 471.515 429 471.724 428.137L475.729 411.634C475.818 411.266 475.691 410.878 475.401 410.634L462.309 399.609C461.625 399.033 461.983 397.917 462.874 397.847L480.091 396.49C480.464 396.461 480.788 396.227 480.934 395.883L487.579 380.177Z" fill="white"/>
<path d="M481.07 415.351C481.403 414.508 482.597 414.508 482.93 415.351L489.443 431.82C489.582 432.173 489.91 432.416 490.288 432.448L507.28 433.881C508.152 433.955 508.516 435.034 507.865 435.62L494.847 447.349C494.578 447.591 494.461 447.96 494.541 448.313L498.505 465.792C498.703 466.664 497.743 467.338 496.989 466.854L482.54 457.572C482.211 457.361 481.789 457.361 481.46 457.572L467.011 466.854C466.257 467.338 465.297 466.664 465.495 465.792L469.459 448.313C469.539 447.96 469.422 447.591 469.153 447.349L456.135 435.62C455.484 435.034 455.848 433.955 456.72 433.881L473.712 432.448C474.09 432.416 474.418 432.173 474.557 431.82L481.07 415.351Z" fill="white"/>
<path d="M524.079 429.177C524.423 428.364 525.577 428.364 525.921 429.177L532.698 445.201C532.844 445.545 533.169 445.779 533.541 445.808L551.102 447.192C551.993 447.263 552.351 448.378 551.668 448.954L538.313 460.203C538.023 460.448 537.896 460.835 537.985 461.204L542.07 478.041C542.279 478.904 541.344 479.591 540.583 479.134L525.515 470.084C525.198 469.894 524.802 469.894 524.485 470.084L509.417 479.134C508.656 479.591 507.721 478.904 507.93 478.041L512.015 461.204C512.104 460.835 511.977 460.448 511.687 460.203L498.332 448.954C497.649 448.378 498.007 447.263 498.898 447.192L516.459 445.808C516.831 445.779 517.156 445.545 517.302 445.201L524.079 429.177Z" fill="white"/>
<path d="M45.4043 164.089L212.934 39.2626" stroke="white" stroke-width="5" stroke-linecap="round"/>
<path d="M55.2593 180.513L219.504 187.083" stroke="white" stroke-width="5" stroke-linecap="round"/>
<path d="M275.348 187.083L416.598 180.513" stroke="white" stroke-width="5" stroke-linecap="round"/>
<path d="M45.4043 210.077L137.382 344.758" stroke="white" stroke-width="5" stroke-linecap="round"/>
<path d="M452.732 206.792L485 375" stroke="white" stroke-width="5" stroke-linecap="round"/>
<path d="M153.806 387.462L173.516 479.439" stroke="white" stroke-width="5" stroke-linecap="round"/>
<path d="M252.354 39.2622L426.453 160.804" stroke="white" stroke-width="5" stroke-linecap="round"/>
</svg>
