<svg width="67" height="66" viewBox="0 0 67 66" fill="none" xmlns="http://www.w3.org/2000/svg">
<path d="M50.5497 2.68891L48.6125 22.386C48.4998 23.5325 48.9583 24.661 49.8388 25.4038L64.9666 38.1661C65.2834 38.4334 65.1562 38.9478 64.7515 39.0367L45.4198 43.2811C44.2946 43.5281 43.3631 44.313 42.9287 45.3799L35.4657 63.7111C35.3094 64.0949 34.7809 64.133 34.5713 63.7755L24.5608 46.7015C23.9781 45.7078 22.9438 45.0644 21.7949 44.981L2.05469 43.5479C1.64136 43.5179 1.44186 43.0269 1.71709 42.7171L14.862 27.9204C15.627 27.0592 15.9193 25.8767 15.6436 24.7582L10.9065 5.54134C10.8073 5.13897 11.2126 4.79752 11.5923 4.96355L29.7267 12.8926C30.7822 13.3541 31.9972 13.2667 32.9757 12.6589L49.7882 2.21524C50.1402 1.99657 50.5902 2.27648 50.5497 2.68891Z" stroke="white" stroke-width="3"/>
</svg>
