<svg width="67" height="67" viewBox="0 0 67 67" fill="none" xmlns="http://www.w3.org/2000/svg">
<path d="M37.8771 2.38068L43.6488 21.3126C43.9847 22.4145 44.8413 23.2805 45.9395 23.6284L64.8072 29.6066C65.2023 29.7318 65.2823 30.2556 64.9427 30.4931L48.7209 41.8326C47.7768 42.4926 47.2178 43.5749 47.2263 44.7268L47.3711 64.5184C47.3741 64.9328 46.9007 65.1708 46.5699 64.9212L30.7726 52.9975C29.8532 52.3035 28.6511 52.1063 27.5581 52.4703L8.77996 58.7241C8.38678 58.855 8.01411 58.4782 8.14935 58.0865L14.6078 39.3778C14.9837 38.2889 14.7997 37.0847 14.1158 36.1577L2.36541 20.2311C2.11938 19.8976 2.36253 19.4268 2.77688 19.4344L22.5657 19.7954C23.7175 19.8164 24.8059 19.2693 25.4761 18.3325L36.9922 2.23556C37.2333 1.89852 37.7562 1.98427 37.8771 2.38068Z" stroke="white" stroke-width="3"/>
</svg>
