<svg width="48" height="49" viewBox="0 0 48 49" fill="none" xmlns="http://www.w3.org/2000/svg">
<path d="M20.2399 1.93178L28.8663 11.9601C29.6175 12.8334 30.7504 13.2812 31.8957 13.1574L45.0472 11.7364C45.4592 11.6919 45.7435 12.1392 45.5282 12.4933L38.6563 23.7964C38.0579 24.7808 37.9822 25.9965 38.4538 27.0475L43.8693 39.1163C44.0389 39.4944 43.7014 39.9029 43.2981 39.8076L30.4247 36.7649C29.3036 36.5 28.1239 36.8036 27.2701 37.5769L17.4655 46.4568C17.1583 46.735 16.6655 46.5403 16.6315 46.1272L15.5471 32.9436C15.4527 31.7956 14.7994 30.7675 13.8001 30.1944L2.32499 23.6137C1.9655 23.4075 1.99845 22.8786 2.38076 22.7187L14.584 17.6134C15.6467 17.1688 16.4226 16.2298 16.6588 15.1023L19.3714 2.15531C19.4564 1.7497 19.9696 1.6176 20.2399 1.93178Z" stroke="white" stroke-width="3"/>
</svg>
